<?xml version="1.0" encoding="UTF-8"?>
<svg version="1.1" xmlns="http://www.w3.org/2000/svg" width="434" height="565">
<path d="M0 0 C143.22 0 286.44 0 434 0 C434 186.45 434 372.9 434 565 C290.78 565 147.56 565 0 565 C0 378.55 0 192.1 0 0 Z " fill="#FDFDFD" transform="translate(0,0)"/>
<path d="M0 0 C0.66 0 1.32 0 2 0 C2 0.66 2 1.32 2 2 C2.99 2.33 3.98 2.66 5 3 C4.67 4.32 4.34 5.64 4 7 C3.05125 6.855625 2.1025 6.71125 1.125 6.5625 C-3.56740347 5.88802722 -8.28134412 5.44623104 -13 5 C-13 4.34 -13 3.68 -13 3 C-13.66 3 -14.32 3 -15 3 C-15 3.99 -15 4.98 -15 6 C-17.97 6 -20.94 6 -24 6 C-24.33 5.01 -24.66 4.02 -25 3 C-24.67 2.34 -24.34 1.68 -24 1 C-22.2984375 1.2784375 -22.2984375 1.2784375 -20.5625 1.5625 C-19.386875 1.706875 -18.21125 1.85125 -17 2 C-16.67 1.67 -16.34 1.34 -16 1 C-12.7848773 0.93990425 -9.58547814 0.98008297 -6.37109375 1.0390625 C-4.58080145 1.05975952 -2.79009925 1.0334598 -1 1 C-0.67 0.67 -0.34 0.34 0 0 Z " fill="#B9B9B9" transform="translate(152,283)"/>
<path d="M0 0 C0.33 0.99 0.66 1.98 1 3 C2.32 3 3.64 3 5 3 C4.34 5.31 3.68 7.62 3 10 C2.34 10 1.68 10 1 10 C0.67 9.34 0.34 8.68 0 8 C-0.66 8.66 -1.32 9.32 -2 10 C-4.5 10.3125 -4.5 10.3125 -7 10 C-9.15502531 6.76746204 -9.46856135 5.74849077 -9 2 C-6.63480795 -1.94198675 -4.0732639 -0.99568673 0 0 Z " fill="#C7C7C7" transform="translate(307,85)"/>
<path d="M0 0 C0.66 0.99 1.32 1.98 2 3 C2.495 2.835 2.99 2.67 3.5 2.5 C7.03444089 1.79311182 10.39690701 1.93994845 14 2 C14.33 1.34 14.66 0.68 15 0 C16.65 0 18.3 0 20 0 C20.33 0.66 20.66 1.32 21 2 C21.99 2.33 22.98 2.66 24 3 C23.34 3 22.68 3 22 3 C22 3.66 22 4.32 22 5 C22.66 5.33 23.32 5.66 24 6 C14.76 6 5.52 6 -4 6 C-4 4.68 -4 3.36 -4 2 C-3.01 2.33 -2.02 2.66 -1 3 C-1.33 3.33 -1.66 3.66 -2 4 C-1.34 2.68 -0.68 1.36 0 0 Z " fill="#8F8F8F" transform="translate(96,301)"/>
<path d="M0 0 C2.6875 0.875 2.6875 0.875 5 2 C5 2.66 5 3.32 5 4 C6.32 4 7.64 4 9 4 C9.33 6.31 9.66 8.62 10 11 C9.34 9.68 8.68 8.36 8 7 C7.01 7 6.02 7 5 7 C4.67 8.32 4.34 9.64 4 11 C2.25 11.75 2.25 11.75 0 12 C-2.3125 10.4375 -2.3125 10.4375 -4 8 C-3.9375 4.875 -3.9375 4.875 -3 2 C-2.01 1.34 -1.02 0.68 0 0 Z " fill="#D1D1D1" transform="translate(305,66)"/>
<path d="M0 0 C1.85625 0.2784375 1.85625 0.2784375 3.75 0.5625 C6.76279577 0.94711223 9.10010827 1.0874594 12 0 C12.33 0.99 12.66 1.98 13 3 C13.33 2.505 13.66 2.01 14 1.5 C17.17572747 -0.88179561 20.10246066 -0.19168226 24 0 C24 1.32 24 2.64 24 4 C20.04 4 16.08 4 12 4 C12 4.66 12 5.32 12 6 C9.36 6 6.72 6 4 6 C4 5.34 4 4.68 4 4 C1.69 4 -0.62 4 -3 4 C-2.67 3.01 -2.34 2.02 -2 1 C-1.34 1.33 -0.68 1.66 0 2 C0 1.34 0 0.68 0 0 Z " fill="#AFAFAF" transform="translate(129,265)"/>
<path d="M0 0 C1.24716797 0.10828125 1.24716797 0.10828125 2.51953125 0.21875 C3.60621094 0.3115625 4.69289062 0.404375 5.8125 0.5 C6.89144531 0.5928125 7.97039062 0.685625 9.08203125 0.78125 C12.48724229 1.03652687 14.73564235 1.08811922 18 0 C18.66 0.66 19.32 1.32 20 2 C20.66 2 21.32 2 22 2 C22 2.66 22 3.32 22 4 C22.66 4 23.32 4 24 4 C23.67 4.66 23.34 5.32 23 6 C20.06225537 6.05390357 17.12549768 6.0936255 14.1875 6.125 C13.35412109 6.14175781 12.52074219 6.15851563 11.66210938 6.17578125 C10.85966797 6.18222656 10.05722656 6.18867188 9.23046875 6.1953125 C8.12288208 6.21102295 8.12288208 6.21102295 6.99291992 6.22705078 C5 6 5 6 2 4 C1.01 4.495 1.01 4.495 0 5 C0 3.35 0 1.7 0 0 Z " fill="#929292" transform="translate(152,325)"/>
<path d="M0 0 C0.66 0.66 1.32 1.32 2 2 C5.58343976 2.16677282 5.58343976 2.16677282 9 2 C8.67 3.32 8.34 4.64 8 6 C1.07 6 -5.86 6 -13 6 C-13 4.68 -13 3.36 -13 2 C-8.71 2 -4.42 2 0 2 C0 1.34 0 0.68 0 0 Z " fill="#ACACAC" transform="translate(248,234)"/>
<path d="M0 0 C0.33 0 0.66 0 1 0 C1 1.65 1 3.3 1 5 C1.66 5 2.32 5 3 5 C3.66 3.68 4.32 2.36 5 1 C5.763125 1.165 6.52625 1.33 7.3125 1.5 C10.03596236 2.09145396 10.03596236 2.09145396 13 2 C12.67 3.32 12.34 4.64 12 6 C5.07 6 -1.86 6 -9 6 C-9 4.68 -9 3.36 -9 2 C-5.94736336 1.01879536 -4.05263664 1.01879536 -1 2 C-0.67 1.34 -0.34 0.68 0 0 Z " fill="#969696" transform="translate(279,263)"/>
<path d="M0 0 C1.33998047 0.31324219 1.33998047 0.31324219 2.70703125 0.6328125 C3.60808594 0.83648437 4.50914062 1.04015625 5.4375 1.25 C6.12457031 1.41757813 6.81164062 1.58515625 7.51953125 1.7578125 C7.18953125 3.0778125 6.85953125 4.3978125 6.51953125 5.7578125 C5.19953125 5.4278125 3.87953125 5.0978125 2.51953125 4.7578125 C2.51953125 4.0978125 2.51953125 3.4378125 2.51953125 2.7578125 C1.85953125 2.7578125 1.19953125 2.7578125 0.51953125 2.7578125 C0.18953125 3.7478125 -0.14046875 4.7378125 -0.48046875 5.7578125 C-4.44046875 5.7578125 -8.40046875 5.7578125 -12.48046875 5.7578125 C-12.48046875 4.4378125 -12.48046875 3.1178125 -12.48046875 1.7578125 C-10.84078125 1.8196875 -10.84078125 1.8196875 -9.16796875 1.8828125 C-5.27717553 1.7509212 -3.6482507 -0.35620715 0 0 Z " fill="#C4C4C4" transform="translate(213.48046875,244.2421875)"/>
<path d="M0 0 C2.63084251 0.51333512 4.05574027 0.33558658 6.5625 -0.5 C6.8925 0.82 7.2225 2.14 7.5625 3.5 C6.2425 3.5 4.9225 3.5 3.5625 3.5 C3.2325 4.16 2.9025 4.82 2.5625 5.5 C1.5625 6.5 1.5625 6.5 -0.72265625 6.59765625 C-2.09744141 6.58025391 -2.09744141 6.58025391 -3.5 6.5625 C-4.41910156 6.55347656 -5.33820313 6.54445313 -6.28515625 6.53515625 C-6.99542969 6.52355469 -7.70570313 6.51195313 -8.4375 6.5 C-8.4375 4.52 -8.4375 2.54 -8.4375 0.5 C-8.1075 1.16 -7.7775 1.82 -7.4375 2.5 C-6.11261887 2.86548445 -4.77731486 3.1937566 -3.4375 3.5 C-2.0895257 4.13654342 -0.75153276 4.79605388 0.5625 5.5 C0.5625 4.84 0.5625 4.18 0.5625 3.5 C-0.05625 3.37625 -0.675 3.2525 -1.3125 3.125 C-3.4375 2.5 -3.4375 2.5 -5.4375 0.5 C-2.4375 -0.5 -2.4375 -0.5 0 0 Z " fill="#A9A9A9" transform="translate(157.4375,70.5)"/>
<path d="M0 0 C0.66 0 1.32 0 2 0 C3 3 3 3 2 6 C-3.61 6 -9.22 6 -15 6 C-15.33 4.68 -15.66 3.36 -16 2 C-14.948125 2.020625 -13.89625 2.04125 -12.8125 2.0625 C-9.15485053 2.11968402 -9.15485053 2.11968402 -6.25 1.4375 C-4 1 -4 1 -1 2 C-0.67 1.34 -0.34 0.68 0 0 Z " fill="#BCBCBC" transform="translate(89,263)"/>
<path d="M0 0 C0 1.98 0 3.96 0 6 C-0.66 5.67 -1.32 5.34 -2 5 C-2 4.34 -2 3.68 -2 3 C-3.65 2.67 -5.3 2.34 -7 2 C-7.33 3.65 -7.66 5.3 -8 7 C-10.97 7 -13.94 7 -17 7 C-15 3 -15 3 -13 0 C-12.01 0.66 -11.02 1.32 -10 2 C-9.67 1.34 -9.34 0.68 -9 0 C-5.52176885 -1.15941038 -3.54104422 -0.70820884 0 0 Z " fill="#B1B1B1" transform="translate(255,142)"/>
<path d="M0 0 C3.71599191 -0.20086443 4.77208445 -0.1519437 8 2 C8.6875 4.125 8.6875 4.125 9 6 C9.66 5.01 10.32 4.02 11 3 C11 4.65 11 6.3 11 8 C7.04 8 3.08 8 -1 8 C-0.67 5.36 -0.34 2.72 0 0 Z " fill="#B6B6B6" transform="translate(183,119)"/>
<path d="M0 0 C1.98 0 3.96 0 6 0 C6.95024979 3.69541586 6.95024979 6.30458414 6 10 C4.02 10 2.04 10 0 10 C0 6.7 0 3.4 0 0 Z " fill="#8C8C8C" transform="translate(261,67)"/>
<path d="M0 0 C3.375 -0.1875 3.375 -0.1875 7 0 C9.29013653 3.4352048 9.17842973 4.985331 9 9 C9.66 9 10.32 9 11 9 C11 7.02 11 5.04 11 3 C11.66 3 12.32 3 13 3 C13 5.31 13 7.62 13 10 C11.35 10 9.7 10 8 10 C7.87625 9.195625 7.7525 8.39125 7.625 7.5625 C7.41875 6.716875 7.2125 5.87125 7 5 C6.34 4.67 5.68 4.34 5 4 C5 4.66 5 5.32 5 6 C4.01 6 3.02 6 2 6 C2 7.32 2 8.64 2 10 C1.34 9.67 0.68 9.34 0 9 C0 6.03 0 3.06 0 0 Z " fill="#979797" transform="translate(105,67)"/>
<path d="M0 0 C0.33 0.99 0.66 1.98 1 3 C1.66 2.34 2.32 1.68 3 1 C3 2.32 3 3.64 3 5 C1.68 5 0.36 5 -1 5 C-1 4.01 -1 3.02 -1 2 C-1.99 2 -2.98 2 -4 2 C-4 2.66 -4 3.32 -4 4 C-8.63098598 5.15774649 -14.61563621 6.19218189 -19 4 C-18.67 3.01 -18.34 2.02 -18 1 C-17.32453125 1.01160156 -16.6490625 1.02320313 -15.953125 1.03515625 C-15.06109375 1.04417969 -14.1690625 1.05320312 -13.25 1.0625 C-12.36828125 1.07410156 -11.4865625 1.08570313 -10.578125 1.09765625 C-6.90459877 0.95850753 -3.72814757 0 0 0 Z " fill="#AFAFAF" transform="translate(97,255)"/>
<path d="M0 0 C0.66 0 1.32 0 2 0 C2 0.66 2 1.32 2 2 C2.886875 1.62875 3.77375 1.2575 4.6875 0.875 C8.40826005 -0.10784228 9.67438135 0.23937836 13 2 C12 5 12 5 11 7 C8.625 6.6875 8.625 6.6875 6 6 C5.34 5.01 4.68 4.02 4 3 C4 3.66 4 4.32 4 5 C2.02 5.33 0.04 5.66 -2 6 C-1.49396008 3.83125748 -1.00016187 2.00032373 0 0 Z " fill="#8D8D8D" transform="translate(199,325)"/>
<path d="M0 0 C0.33 0.66 0.66 1.32 1 2 C7.27 2 13.54 2 20 2 C19.34 3.32 18.68 4.64 18 6 C17.2575 5.814375 16.515 5.62875 15.75 5.4375 C13.00993984 5.00158134 11.60979891 5.28005547 9 6 C8.34 5.67 7.68 5.34 7 5 C7 4.34 7 3.68 7 3 C6.34 3 5.68 3 5 3 C4.67 3.99 4.34 4.98 4 6 C2.68 6 1.36 6 0 6 C0 4.02 0 2.04 0 0 Z " fill="#ACACAC" transform="translate(131,244)"/>
<path d="M0 0 C5.61 0 11.22 0 17 0 C17.33 1.32 17.66 2.64 18 4 C12.06 4 6.12 4 0 4 C0 2.68 0 1.36 0 0 Z " fill="#ADADAD" transform="translate(303,217)"/>
<path d="M0 0 C1.60407328 -0.02708567 3.2082785 -0.04643483 4.8125 -0.0625 C5.70582031 -0.07410156 6.59914063 -0.08570313 7.51953125 -0.09765625 C10 0 10 0 13 1 C13.99 1 14.98 1 16 1 C16 2.32 16 3.64 16 5 C14.35 5 12.7 5 11 5 C11 4.01 11 3.02 11 2 C10.34 2 9.68 2 9 2 C9.33 2.99 9.66 3.98 10 5 C7.03 4.67 4.06 4.34 1 4 C0.67 2.68 0.34 1.36 0 0 Z " fill="#BEBEBE" transform="translate(333,284)"/>
<path d="M0 0 C3.24102432 0.42199355 3.24102432 0.42199355 6.5 0.5625 C6.5 1.8825 6.5 3.2025 6.5 4.5625 C5.77554687 4.55089844 5.05109375 4.53929687 4.3046875 4.52734375 C-0.74783323 4.48018689 -5.53378767 4.48872436 -10.5 5.5625 C-10.83 3.9125 -11.16 2.2625 -11.5 0.5625 C-10.18 0.5625 -8.86 0.5625 -7.5 0.5625 C-7.17 1.5525 -6.84 2.5425 -6.5 3.5625 C-6.5 2.5725 -6.5 1.5825 -6.5 0.5625 C-4.00157063 -0.68671469 -2.74449196 -0.36088287 0 0 Z " fill="#B7B7B7" transform="translate(279.5,255.4375)"/>
<path d="M0 0 C0.33 0.66 0.66 1.32 1 2 C2.32 2 3.64 2 5 2 C5.66 1.34 6.32 0.68 7 0 C7 0.66 7 1.32 7 2 C7.99 2 8.98 2 10 2 C10 1.34 10 0.68 10 0 C10.66 0 11.32 0 12 0 C12.33 0.66 12.66 1.32 13 2 C14.98 2 16.96 2 19 2 C19.33 2.99 19.66 3.98 20 5 C18.63875 4.9690625 18.63875 4.9690625 17.25 4.9375 C14.57327412 4.9889755 12.53011948 5.2215017 10 6 C9.67 5.01 9.34 4.02 9 3 C8.34 3 7.68 3 7 3 C6.67 3.99 6.34 4.98 6 6 C4.02 6 2.04 6 0 6 C0 4.02 0 2.04 0 0 Z " fill="#ABABAB" transform="translate(111,225)"/>
<path d="M0 0 C0.33 0 0.66 0 1 0 C1 3.3 1 6.6 1 10 C-2.96 10 -6.92 10 -11 10 C-11 7.69 -11 5.38 -11 3 C-10.01 3.495 -10.01 3.495 -9 4 C-9 4.66 -9 5.32 -9 6 C-8.34 6 -7.68 6 -7 6 C-6.67 5.01 -6.34 4.02 -6 3 C-3 4 -3 4 -1.8125 6.0625 C-1.544375 6.701875 -1.27625 7.34125 -1 8 C-0.67 5.36 -0.34 2.72 0 0 Z " fill="#969696" transform="translate(97,67)"/>
<path d="M0 0 C1.093125 0.185625 2.18625 0.37125 3.3125 0.5625 C6.93624133 1.2578068 6.93624133 1.2578068 10 0 C10.99 0.33 11.98 0.66 13 1 C13.33 2.65 13.66 4.3 14 6 C8.47322267 6.19392201 4.24385089 5.7479503 -1 4 C-0.67 2.68 -0.34 1.36 0 0 Z " fill="#BEBEBE" transform="translate(232,255)"/>
<path d="M0 0 C5.61 0 11.22 0 17 0 C17 1.32 17 2.64 17 4 C11.39 4 5.78 4 0 4 C0 2.68 0 1.36 0 0 Z " fill="#B8B8B8" transform="translate(323,236)"/>
<path d="M0 0 C1.051875 0.185625 2.10375 0.37125 3.1875 0.5625 C6.63825024 0.95848773 8.69036459 0.71559684 12 0 C14.3125 0.4375 14.3125 0.4375 16 1 C16 2.32 16 3.64 16 5 C10.72 5 5.44 5 0 5 C0 3.35 0 1.7 0 0 Z " fill="#C0C0C0" transform="translate(261,235)"/>
<path d="M0 0 C2.31 0.33 4.62 0.66 7 1 C7 2.32 7 3.64 7 5 C2.32798795 6.20568053 -2.21496292 6.09382426 -7 6 C-7.33 4.68 -7.66 3.36 -8 2 C-5.36 2 -2.72 2 0 2 C0 1.34 0 0.68 0 0 Z " fill="#B6B6B6" transform="translate(171,283)"/>
<path d="M0 0 C0.33 1.32 0.66 2.64 1 4 C-2 4 -2 4 -4 3 C-4.33 3.66 -4.66 4.32 -5 5 C-8.3 5 -11.6 5 -15 5 C-15.33 4.34 -15.66 3.68 -16 3 C-15.67 2.34 -15.34 1.68 -15 1 C-14.31292969 1.01160156 -13.62585938 1.02320313 -12.91796875 1.03515625 C-12.01691406 1.04417969 -11.11585937 1.05320313 -10.1875 1.0625 C-8.84751953 1.07990234 -8.84751953 1.07990234 -7.48046875 1.09765625 C-4.81553363 0.99273754 -2.64560564 0 0 0 Z " fill="#BBBBBB" transform="translate(88,245)"/>
<path d="M0 0 C0.721875 0.185625 1.44375 0.37125 2.1875 0.5625 C5.12826973 1.01995307 7.14103058 0.73516357 10 0 C10 0.66 10 1.32 10 2 C9.34 2 8.68 2 8 2 C8.33 3.65 8.66 5.3 9 7 C8.443125 6.814375 7.88625 6.62875 7.3125 6.4375 C4.600867 5.92448835 2.65628961 6.3359276 0 7 C-1.125 2.25 -1.125 2.25 0 0 Z " fill="#B9B9B9" transform="translate(205,88)"/>
<path d="M0 0 C0.33 0.66 0.66 1.32 1 2 C6.94 2 12.88 2 19 2 C18.67 2.99 18.34 3.98 18 5 C17.01 5 16.02 5 15 5 C15 4.34 15 3.68 15 3 C14.01 3 13.02 3 12 3 C12 3.66 12 4.32 12 5 C9.03 5 6.06 5 3 5 C3 4.34 3 3.68 3 3 C2.34 3 1.68 3 1 3 C1 3.66 1 4.32 1 5 C0.34 5 -0.32 5 -1 5 C-1 4.34 -1 3.68 -1 3 C-1.66 3 -2.32 3 -3 3 C-3.33 3.66 -3.66 4.32 -4 5 C-3.6875 3.0625 -3.6875 3.0625 -3 1 C-2.01 0.67 -1.02 0.34 0 0 Z " fill="#A5A5A5" transform="translate(305,283)"/>
<path d="M0 0 C0.969375 0.165 1.93875 0.33 2.9375 0.5 C7.29487763 1.13396273 11.60630704 1.0896672 16 1 C16 2.32 16 3.64 16 5 C14.56465159 5.2226746 13.12654475 5.42761906 11.6875 5.625 C10.88699219 5.74101562 10.08648437 5.85703125 9.26171875 5.9765625 C7 6 7 6 4 4 C1.84725052 4.30840599 1.84725052 4.30840599 0 5 C0 3.35 0 1.7 0 0 Z " fill="#AEAEAE" transform="translate(279,274)"/>
<path d="M0 0 C1.32 0 2.64 0 4 0 C4 0.66 4 1.32 4 2 C4.99 2.33 5.98 2.66 7 3 C6.67 4.32 6.34 5.64 6 7 C2.7 6.67 -0.6 6.34 -4 6 C-4 5.01 -4 4.02 -4 3 C-4.66 3 -5.32 3 -6 3 C-6.33 3.66 -6.66 4.32 -7 5 C-7.66 5 -8.32 5 -9 5 C-8.67 4.01 -8.34 3.02 -8 2 C-4.86650268 0.95550089 -4.01031744 1.06576355 -1 2 C-0.67 1.34 -0.34 0.68 0 0 Z " fill="#A7A7A7" transform="translate(169,254)"/>
<path d="M0 0 C0.66 0 1.32 0 2 0 C2 0.66 2 1.32 2 2 C2.66 2 3.32 2 4 2 C4 3.32 4 4.64 4 6 C-0.29 6 -4.58 6 -9 6 C-9.33 4.68 -9.66 3.36 -10 2 C-6.7 2 -3.4 2 0 2 C0 1.34 0 0.68 0 0 Z " fill="#BCBCBC" transform="translate(139,234)"/>
<path d="M0 0 C0.94875 0.04125 1.8975 0.0825 2.875 0.125 C3.875 3.125 3.875 3.125 3.875 7.125 C1.235 7.125 -1.405 7.125 -4.125 7.125 C-4.75 4.75 -4.75 4.75 -5.125 2.125 C-3.125 0.125 -3.125 0.125 0 0 Z " fill="#B7B7B7" transform="translate(323.125,69.875)"/>
<path d="M0 0 C1.134375 0.020625 2.26875 0.04125 3.4375 0.0625 C3.4375 2.3725 3.4375 4.6825 3.4375 7.0625 C1.10455225 7.10491723 -1.22952567 7.10342937 -3.5625 7.0625 C-4.5625 6.0625 -4.5625 6.0625 -4.6875 3.5625 C-4.4904197 -0.37910609 -4.10054684 0.07193942 0 0 Z " fill="#BFBFBF" transform="translate(232.5625,69.9375)"/>
<path d="M0 0 C1.32 0 2.64 0 4 0 C4 1.65 4 3.3 4 5 C2.7625 5.144375 1.525 5.28875 0.25 5.4375 C-2.56504499 5.78688502 -5.2701497 6.20379366 -8 7 C-8.042721 5.33388095 -8.04063832 3.66617115 -8 2 C-7.67 1.67 -7.34 1.34 -7 1 C-5 1 -3 1 -1 1 C-0.67 0.67 -0.34 0.34 0 0 Z " fill="#C3C3C3" transform="translate(95,235)"/>
<path d="M0 0 C0.66 0 1.32 0 2 0 C2.33 1.98 2.66 3.96 3 6 C1.37509046 6.02698189 -0.24994633 6.04638757 -1.875 6.0625 C-3.23238281 6.07990234 -3.23238281 6.07990234 -4.6171875 6.09765625 C-7 6 -7 6 -9 5 C-8 2 -8 2 -7 1 C-5 1 -3 1 -1 1 C-0.67 0.67 -0.34 0.34 0 0 Z " fill="#B6B6B6" transform="translate(358,325)"/>
<path d="M0 0 C0.66 0.66 1.32 1.32 2 2 C3.67422986 1.70700977 5.34178227 1.37309899 7 1 C7.66 1.33 8.32 1.66 9 2 C8 5 8 5 7 6 C5.14712498 6.07226502 3.29166122 6.0838122 1.4375 6.0625 C0.42558594 6.05347656 -0.58632812 6.04445313 -1.62890625 6.03515625 C-2.41136719 6.02355469 -3.19382812 6.01195312 -4 6 C-4.33 4.35 -4.66 2.7 -5 1 C-2 0 -2 0 0 0 Z " fill="#B4B4B4" transform="translate(111,283)"/>
<path d="M0 0 C3.19892281 0 5.25408155 0.20108841 8.25 1 C9.4875 1.33 10.725 1.66 12 2 C12 2.66 12 3.32 12 4 C12.66 4.33 13.32 4.66 14 5 C11.10765685 5.82638376 9.11257569 6 6 6 C5.113125 6.020625 4.22625 6.04125 3.3125 6.0625 C1 6 1 6 0 5 C-0.04063832 3.33382885 -0.042721 1.66611905 0 0 Z " fill="#C1C1C1" transform="translate(350,283)"/>
<path d="M0 0 C1.65 0.33 3.3 0.66 5 1 C5 2.65 5 4.3 5 6 C1.26562152 6.87867729 -2.16774573 7.08912219 -6 7 C-6.33 5.35 -6.66 3.7 -7 2 C-6.34 1.67 -5.68 1.34 -5 1 C-5 2.65 -5 4.3 -5 6 C-3.68 5.67 -2.36 5.34 -1 5 C-0.67 3.35 -0.34 1.7 0 0 Z " fill="#B1B1B1" transform="translate(252,88)"/>
<path d="M0 0 C2.31 0 4.62 0 7 0 C7.6875 1.8125 7.6875 1.8125 8 4 C6.5625 5.75 6.5625 5.75 5 7 C4.01 6.67 3.02 6.34 2 6 C2 7.32 2 8.64 2 10 C3.98 9.67 5.96 9.34 8 9 C8 9.66 8 10.32 8 11 C5.36 11 2.72 11 0 11 C0 7.37 0 3.74 0 0 Z " fill="#999999" transform="translate(236,84)"/>
<path d="M0 0 C0.886875 0.165 1.77375 0.33 2.6875 0.5 C6.1111913 1.01678359 8.63738103 0.72056121 12 0 C12 1.32 12 2.64 12 4 C9.47524538 5.26237731 7.68799534 5.09856404 4.875 5.0625 C3.96492187 5.05347656 3.05484375 5.04445313 2.1171875 5.03515625 C1.41851562 5.02355469 0.71984375 5.01195312 0 5 C-0.5625 3.0625 -0.5625 3.0625 -1 1 C-0.67 0.67 -0.34 0.34 0 0 Z " fill="#BABABA" transform="translate(207,255)"/>
<path d="M0 0 C0.66 0 1.32 0 2 0 C2 1.98 2 3.96 2 6 C0.20841511 6.02696365 -1.58328473 6.04637917 -3.375 6.0625 C-4.37273437 6.07410156 -5.37046875 6.08570313 -6.3984375 6.09765625 C-9 6 -9 6 -11 5 C-11 4.01 -11 3.02 -11 2 C-7.37 2 -3.74 2 0 2 C0 1.34 0 0.68 0 0 Z " fill="#ABABAB" transform="translate(223,205)"/>
<path d="M0 0 C-1.1858237 3.37503669 -2.27573689 5.64722731 -5 8 C-5.33 7.34 -5.66 6.68 -6 6 C-5.34 6 -4.68 6 -4 6 C-4.33 5.01 -4.66 4.02 -5 3 C-5.99 2.67 -6.98 2.34 -8 2 C-7.67 3.32 -7.34 4.64 -7 6 C-9.31 5.67 -11.62 5.34 -14 5 C-13.67 3.68 -13.34 2.36 -13 1 C-11.68 1 -10.36 1 -9 1 C-6.04335481 -0.4783226 -3.25770263 -0.06032783 0 0 Z " fill="#C3C3C3" transform="translate(219,143)"/>
<path d="M0 0 C0.66 0 1.32 0 2 0 C2 0.66 2 1.32 2 2 C3.65 2 5.3 2 7 2 C7 4.31 7 6.62 7 9 C4.37886292 9 2.49064888 8.68707555 0 8 C0 5.36 0 2.72 0 0 Z " fill="#CBCBCB" transform="translate(77,68)"/>
<path d="M0 0 C1.74965358 -0.05429959 3.49979787 -0.09292823 5.25 -0.125 C6.22453125 -0.14820313 7.1990625 -0.17140625 8.203125 -0.1953125 C11.0196498 0.00137219 12.60949036 0.55431084 15 2 C14 4 14 4 11.875 4.75 C7.57512791 5.12390192 3.83711038 3.91855519 0 2 C0 1.34 0 0.68 0 0 Z " fill="#A6A6A6" transform="translate(87,326)"/>
<path d="M0 0 C3.63 0 7.26 0 11 0 C11.33 1.32 11.66 2.64 12 4 C9.13303368 5.43348316 7.10697549 4.55925559 4 4 C2.68 4 1.36 4 0 4 C0 2.68 0 1.36 0 0 Z " fill="#C0C0C0" transform="translate(274,226)"/>
<path d="M0 0 C0.495 0.37125 0.99 0.7425 1.5 1.125 C5.37199961 2.48019986 8.11742275 1.16477318 12 0 C12.33 1.98 12.66 3.96 13 6 C8.71 6 4.42 6 0 6 C0 4.02 0 2.04 0 0 Z " fill="#B0B0B0" transform="translate(149,225)"/>
<path d="M0 0 C0.66 0 1.32 0 2 0 C2 3.63 2 7.26 2 11 C0.35 11 -1.3 11 -3 11 C-4 10 -4 10 -4.0625 7.4375 C-4.041875 6.633125 -4.02125 5.82875 -4 5 C-2.68 4.67 -1.36 4.34 0 4 C0 2.68 0 1.36 0 0 Z " fill="#AEAEAE" transform="translate(179,84)"/>
<path d="M0 0 C-1 3 -1 3 -2 4 C-5.5 4.125 -5.5 4.125 -9 4 C-9.33 3.67 -9.66 3.34 -10 3 C-10.99 3.495 -10.99 3.495 -12 4 C-12 3.01 -12 2.02 -12 1 C-12.66 1 -13.32 1 -14 1 C-14.33 1.66 -14.66 2.32 -15 3 C-15.33 2.01 -15.66 1.02 -16 0 C-13.89651926 -0.19504458 -11.79217415 -0.38078496 -9.6875 -0.5625 C-8.51574219 -0.66691406 -7.34398437 -0.77132813 -6.13671875 -0.87890625 C-3 -1 -3 -1 0 0 Z " fill="#B8B8B8" transform="translate(139,510)"/>
<path d="M0 0 C2.0625 0.4375 2.0625 0.4375 4 1 C3.67 2.32 3.34 3.64 3 5 C1.37509046 5.02698189 -0.24994633 5.04638757 -1.875 5.0625 C-2.77992187 5.07410156 -3.68484375 5.08570313 -4.6171875 5.09765625 C-7 5 -7 5 -9 4 C-9 3.34 -9 2.68 -9 2 C-9.66 1.67 -10.32 1.34 -11 1 C-10.28972656 1.01160156 -9.57945313 1.02320313 -8.84765625 1.03515625 C-7.92855469 1.04417969 -7.00945312 1.05320313 -6.0625 1.0625 C-4.68771484 1.07990234 -4.68771484 1.07990234 -3.28515625 1.09765625 C-1.03406673 1.25949049 -1.03406673 1.25949049 0 0 Z " fill="#B6B6B6" transform="translate(112,245)"/>
<path d="M0 0 C0.33 0.66 0.66 1.32 1 2 C3.64 2 6.28 2 9 2 C9 3.32 9 4.64 9 6 C5.04 6 1.08 6 -3 6 C-3 4.35 -3 2.7 -3 1 C-2.01 0.67 -1.02 0.34 0 0 Z " fill="#B4B4B4" transform="translate(106,205)"/>
<path d="M0 0 C2.31 0 4.62 0 7 0 C7 1.65 7 3.3 7 5 C7.99 4.67 8.98 4.34 10 4 C10 4.66 10 5.32 10 6 C6.37 6 2.74 6 -1 6 C-0.67 4.02 -0.34 2.04 0 0 Z " fill="#909090" transform="translate(78,301)"/>
<path d="M0 0 C3.96 0 7.92 0 12 0 C12.33 1.32 12.66 2.64 13 4 C9.7 4 6.4 4 3 4 C3 3.34 3 2.68 3 2 C2.34 2 1.68 2 1 2 C0.67 2.66 0.34 3.32 0 4 C0 2.68 0 1.36 0 0 Z " fill="#C3C3C3" transform="translate(224,275)"/>
<path d="M0 0 C0.66 1.32 1.32 2.64 2 4 C2.66 2.68 3.32 1.36 4 0 C5.65 0 7.3 0 9 0 C9.33 1.98 9.66 3.96 10 6 C6.7 6 3.4 6 0 6 C-0.38218767 4.34385343 -0.71395102 2.67542976 -1 1 C-0.67 0.67 -0.34 0.34 0 0 Z " fill="#969696" transform="translate(304,325)"/>
<path d="M0 0 C4 0 8 0 12 0 C12 1.98 12 3.96 12 6 C8.72724974 6 6.153368 5.70074844 3 5 C3 4.01 3 3.02 3 2 C2.34 1.67 1.68 1.34 1 1 C0.67 2.32 0.34 3.64 0 5 C0 3.35 0 1.7 0 0 Z " fill="#A4A4A4" transform="translate(183,301)"/>
<path d="M0 0 C2.64 0 5.28 0 8 0 C8 1.65 8 3.3 8 5 C5.69 5.33 3.38 5.66 1 6 C-0.0625 4.125 -0.0625 4.125 -1 2 C-0.67 1.34 -0.34 0.68 0 0 Z " fill="#C2C2C2" transform="translate(165,301)"/>
<path d="M0 0 C0.33 0 0.66 0 1 0 C1 1.65 1 3.3 1 5 C1.66 5 2.32 5 3 5 C3 4.34 3 3.68 3 3 C10.42857143 0.57142857 10.42857143 0.57142857 14 2 C14.33 3.32 14.66 4.64 15 6 C13.68 5.67 12.36 5.34 11 5 C11 4.34 11 3.68 11 3 C10.34 3 9.68 3 9 3 C9.33 3.99 9.66 4.98 10 6 C6.7 6 3.4 6 0 6 C0 4.02 0 2.04 0 0 Z " fill="#ABABAB" transform="translate(153,234)"/>
<path d="M0 0 C0.33 0.99 0.66 1.98 1 3 C1.66 3 2.32 3 3 3 C3 2.34 3 1.68 3 1 C9.625 -0.125 9.625 -0.125 13 1 C13 1.99 13 2.98 13 4 C10.47524538 5.26237731 8.68799534 5.09856404 5.875 5.0625 C4.96492188 5.05347656 4.05484375 5.04445312 3.1171875 5.03515625 C2.41851562 5.02355469 1.71984375 5.01195312 1 5 C0.67 3.35 0.34 1.7 0 0 Z " fill="#B4B4B4" transform="translate(303,226)"/>
<path d="M0 0 C2.31 0 4.62 0 7 0 C7 0.66 7 1.32 7 2 C9.31 2 11.62 2 14 2 C13.67 2.99 13.34 3.98 13 5 C11.35 4.67 9.7 4.34 8 4 C7.67 4.66 7.34 5.32 7 6 C6.38125 5.835 5.7625 5.67 5.125 5.5 C3.03936614 4.92365356 3.03936614 4.92365356 1 5 C0.67 3.35 0.34 1.7 0 0 Z " fill="#B5B5B5" transform="translate(67,508)"/>
<path d="M0 0 C0.66 0 1.32 0 2 0 C2 3.3 2 6.6 2 10 C0.35 10 -1.3 10 -3 10 C-3.33 8.35 -3.66 6.7 -4 5 C-2.68 4.34 -1.36 3.68 0 3 C0 2.01 0 1.02 0 0 Z " fill="#ABABAB" transform="translate(131,67)"/>
<path d="M0 0 C4.44870215 -0.39253254 7.14243493 0.84694043 11 3 C10.67 4.32 10.34 5.64 10 7 C9.01 6.34 8.02 5.68 7 5 C4.35367713 5.3121764 4.35367713 5.3121764 2 6 C1.34 4.02 0.68 2.04 0 0 Z " fill="#A9A9A9" transform="translate(135,224)"/>
<path d="M0 0 C1.32 0 2.64 0 4 0 C4 0.66 4 1.32 4 2 C4.66 2.33 5.32 2.66 6 3 C5.67 3.99 5.34 4.98 5 6 C1.7 6 -1.6 6 -5 6 C-4.67 4.68 -4.34 3.36 -4 2 C-3.01 2 -2.02 2 -1 2 C-0.67 1.34 -0.34 0.68 0 0 Z " fill="#B2B2B2" transform="translate(303,234)"/>
<path d="M0 0 C2.64 0 5.28 0 8 0 C7.67 0.99 7.34 1.98 7 3 C5.68 2.34 4.36 1.68 3 1 C3 2.32 3 3.64 3 5 C3.99 4.67 4.98 4.34 6 4 C5.67 4.99 5.34 5.98 5 7 C4.34 6.67 3.68 6.34 3 6 C3 7.32 3 8.64 3 10 C4.65 9.67 6.3 9.34 8 9 C8 9.66 8 10.32 8 11 C5.69 11 3.38 11 1 11 C0.67 7.37 0.34 3.74 0 0 Z " fill="#868686" transform="translate(126,84)"/>
<path d="M0 0 C0.66 0 1.32 0 2 0 C2 3.3 2 6.6 2 10 C0.35 10 -1.3 10 -3 10 C-3 9.01 -3 8.02 -3 7 C-3.66 7.66 -4.32 8.32 -5 9 C-5.99 9.495 -5.99 9.495 -7 10 C-7 8.02 -7 6.04 -7 4 C-5.68 3.67 -4.36 3.34 -3 3 C-2.34 4.65 -1.68 6.3 -1 8 C0.41577477 6.81575674 0.41577477 6.81575674 0.0625 3.4375 C0.041875 2.303125 0.02125 1.16875 0 0 Z " fill="#7A7A7A" transform="translate(252,67)"/>
<path d="M0 0 C3.3 0 6.6 0 10 0 C10 1.32 10 2.64 10 4 C6.7 4.33 3.4 4.66 0 5 C0 3.35 0 1.7 0 0 Z " fill="#B6B6B6" transform="translate(95,510)"/>
<path d="M0 0 C2.31 0 4.62 0 7 0 C7 2.31 7 4.62 7 7 C4.36 7 1.72 7 -1 7 C-0.67 6.34 -0.34 5.68 0 5 C0.99 5.33 1.98 5.66 3 6 C3 5.34 3 4.68 3 4 C1.68 3.67 0.36 3.34 -1 3 C-0.67 2.01 -0.34 1.02 0 0 Z " fill="#A4A4A4" transform="translate(317,88)"/>
<path d="M0 0 C0 1.65 0 3.3 0 5 C-1.65 5.33 -3.3 5.66 -5 6 C-4.67 6.99 -4.34 7.98 -4 9 C-4.66 9 -5.32 9 -6 9 C-6 6.03 -6 3.06 -6 0 C-3.50907189 -1.24546405 -2.58919267 -0.7767578 0 0 Z " fill="#AAAAAA" transform="translate(244,71)"/>
<path d="M0 0 C1.8871875 0.0309375 1.8871875 0.0309375 3.8125 0.0625 C3.8125 1.3825 3.8125 2.7025 3.8125 4.0625 C2.4925 4.0625 1.1725 4.0625 -0.1875 4.0625 C-0.1875 3.4025 -0.1875 2.7425 -0.1875 2.0625 C-0.8475 2.0625 -1.5075 2.0625 -2.1875 2.0625 C-2.5175 2.7225 -2.8475 3.3825 -3.1875 4.0625 C-5.75 4.6875 -5.75 4.6875 -8.1875 5.0625 C-7.875 3.125 -7.875 3.125 -7.1875 1.0625 C-4.43671116 0.14557039 -2.82801087 -0.04636083 0 0 Z " fill="#838383" transform="translate(136.1875,325.9375)"/>
<path d="M0 0 C3.63 0 7.26 0 11 0 C11 1.32 11 2.64 11 4 C7.37 4 3.74 4 0 4 C0 2.68 0 1.36 0 0 Z " fill="#939393" transform="translate(129,303)"/>
<path d="M0 0 C0.61875 0.33 1.2375 0.66 1.875 1 C4.61867229 2.2911399 6.13937931 1.79461686 9 1 C8.67 2.65 8.34 4.3 8 6 C4.7 6 1.4 6 -2 6 C-2.33 4.35 -2.66 2.7 -3 1 C-2.01 0.67 -1.02 0.34 0 0 Z " fill="#A9A9A9" transform="translate(224,283)"/>
<path d="M0 0 C0.33 0.66 0.66 1.32 1 2 C3.31 2 5.62 2 8 2 C7.67 2.99 7.34 3.98 7 5 C2.545 5.495 2.545 5.495 -2 6 C-2.33 4.35 -2.66 2.7 -3 1 C-2.01 0.67 -1.02 0.34 0 0 Z " fill="#C2C2C2" transform="translate(291,283)"/>
<path d="M0 0 C8.57142857 -0.14285714 8.57142857 -0.14285714 12 1 C12 1.99 12 2.98 12 4 C7.71 4 3.42 4 -1 4 C-0.67 2.68 -0.34 1.36 0 0 Z " fill="#B9B9B9" transform="translate(174,265)"/>
<path d="M0 0 C3.96 0 7.92 0 12 0 C11.67 1.32 11.34 2.64 11 4 C7.37 4 3.74 4 0 4 C0 2.68 0 1.36 0 0 Z " fill="#A4A4A4" transform="translate(332,207)"/>
<path d="M0 0 C3.3 0.33 6.6 0.66 10 1 C10.33 2.32 10.66 3.64 11 5 C7.7 5 4.4 5 1 5 C0.67 3.35 0.34 1.7 0 0 Z " fill="#C0C0C0" transform="translate(112,509)"/>
<path d="M0 0 C2.92879371 0.62759865 5.36095629 1.58622659 8 3 C7.34 3 6.68 3 6 3 C6 3.66 6 4.32 6 5 C6.66 5.33 7.32 5.66 8 6 C4.04 6 0.08 6 -4 6 C-4 5.01 -4 4.02 -4 3 C-3.34 3 -2.68 3 -2 3 C-2 3.66 -2 4.32 -2 5 C-1.34 5 -0.68 5 0 5 C0 3.35 0 1.7 0 0 Z " fill="#9C9C9C" transform="translate(112,301)"/>
<path d="M0 0 C3.96 0 7.92 0 12 0 C12 0.99 12 1.98 12 3 C10.39679026 3.19551338 8.79237014 3.38111983 7.1875 3.5625 C6.29417969 3.66691406 5.40085938 3.77132813 4.48046875 3.87890625 C2 4 2 4 -1 3 C-0.67 2.01 -0.34 1.02 0 0 Z " fill="#B3B3B3" transform="translate(196,285)"/>
<path d="M0 0 C4.62 0 9.24 0 14 0 C14 1.32 14 2.64 14 4 C11.69 3.67 9.38 3.34 7 3 C7 2.34 7 1.68 7 1 C6.34 1 5.68 1 5 1 C4.67 2.32 4.34 3.64 4 5 C2.68 4.67 1.36 4.34 0 4 C0 2.68 0 1.36 0 0 Z " fill="#909090" transform="translate(164,246)"/>
<path d="M0 0 C3.96 0 7.92 0 12 0 C11.67 1.32 11.34 2.64 11 4 C9.00045254 4.04254356 6.99958364 4.04080783 5 4 C4.67 3.67 4.34 3.34 4 3 C1.94603274 3.40929986 1.94603274 3.40929986 0 4 C0 2.68 0 1.36 0 0 Z " fill="#A9A9A9" transform="translate(248,246)"/>
<path d="M0 0 C0.66 0.33 1.32 0.66 2 1 C1.67 2.65 1.34 4.3 1 6 C-1.64 6 -4.28 6 -7 6 C-7.33 4.35 -7.66 2.7 -8 1 C-6.68 1 -5.36 1 -4 1 C-4 1.99 -4 2.98 -4 4 C-3.34 4 -2.68 4 -2 4 C-2 3.01 -2 2.02 -2 1 C-1.34 0.67 -0.68 0.34 0 0 Z " fill="#B0B0B0" transform="translate(351,226)"/>
<path d="M0 0 C2.05078125 0.03255208 4.1015625 0.06510417 6.15234375 0.09765625 C6.15234375 1.41765625 6.15234375 2.73765625 6.15234375 4.09765625 C4.50234375 4.09765625 2.85234375 4.09765625 1.15234375 4.09765625 C0.82234375 3.43765625 0.49234375 2.77765625 0.15234375 2.09765625 C-0.77578125 2.42765625 -1.70390625 2.75765625 -2.66015625 3.09765625 C-5.84765625 4.09765625 -5.84765625 4.09765625 -8.84765625 4.09765625 C-8.84765625 3.10765625 -8.84765625 2.11765625 -8.84765625 1.09765625 C-7.39359375 1.12859375 -7.39359375 1.12859375 -5.91015625 1.16015625 C-2.67139686 1.09405912 -2.77992149 0.14693031 0 0 Z " fill="#ABABAB" transform="translate(293.84765625,206.90234375)"/>
<path d="M0 0 C0.99 0 1.98 0 3 0 C3.33 0.66 3.66 1.32 4 2 C6.02463255 2.65213292 6.02463255 2.65213292 8 3 C8 3.99 8 4.98 8 6 C4.37 6 0.74 6 -3 6 C-2.67 5.01 -2.34 4.02 -2 3 C-2 3.66 -2 4.32 -2 5 C-1.34 5 -0.68 5 0 5 C0 3.35 0 1.7 0 0 Z " fill="#9B9B9B" transform="translate(373,71)"/>
<path d="M0 0 C2.475 0.495 2.475 0.495 5 1 C5 1.99 5 2.98 5 4 C5.99 3.67 6.98 3.34 8 3 C7.67 3.99 7.34 4.98 7 6 C4.69 6.33 2.38 6.66 0 7 C0 4.69 0 2.38 0 0 Z " fill="#9C9C9C" transform="translate(223,324)"/>
<path d="M0 0 C1.093125 0.185625 2.18625 0.37125 3.3125 0.5625 C6.93624133 1.2578068 6.93624133 1.2578068 10 0 C10 1.32 10 2.64 10 4 C5.545 4.495 5.545 4.495 1 5 C0.67 3.35 0.34 1.7 0 0 Z " fill="#A8A8A8" transform="translate(148,255)"/>
<path d="M0 0 C0 0.66 0 1.32 0 2 C1.98 2 3.96 2 6 2 C6 2.66 6 3.32 6 4 C5.34 4 4.68 4 4 4 C3.67 4.66 3.34 5.32 3 6 C0.69 6 -1.62 6 -4 6 C-4.33 4.35 -4.66 2.7 -5 1 C-2 0 -2 0 0 0 Z " fill="#B0B0B0" transform="translate(359,244)"/>
<path d="M0 0 C-0.33 1.32 -0.66 2.64 -1 4 C-3.64 4 -6.28 4 -9 4 C-9.66 2.68 -10.32 1.36 -11 0 C-7.01803543 -1.05404945 -4.01804691 -0.84098656 0 0 Z " fill="#CFCFCF" transform="translate(365,227)"/>
<path d="M0 0 C3.3 0.33 6.6 0.66 10 1 C9 4 9 4 8 5 C6.33382885 5.04063832 4.66611905 5.042721 3 5 C2.67 4.01 2.34 3.02 2 2 C1.34 2 0.68 2 0 2 C-0.33 2.66 -0.66 3.32 -1 4 C-0.67 2.68 -0.34 1.36 0 0 Z " fill="#969696" transform="translate(338,326)"/>
<path d="M0 0 C3.3 0 6.6 0 10 0 C9.33333333 2 8.66666667 4 8 6 C7.34 6 6.68 6 6 6 C6 5.34 6 4.68 6 4 C4.02 4 2.04 4 0 4 C0 2.68 0 1.36 0 0 Z " fill="#A9A9A9" transform="translate(327,275)"/>
<path d="M0 0 C0.66 0 1.32 0 2 0 C2 1.98 2 3.96 2 6 C-0.97 6 -3.94 6 -7 6 C-7 5.34 -7 4.68 -7 4 C-7.66 4 -8.32 4 -9 4 C-9.33 4.66 -9.66 5.32 -10 6 C-10 4.68 -10 3.36 -10 2 C-6.7 2 -3.4 2 0 2 C-1 4 -1 4 -2 5 C-1.01 5 -0.02 5 1 5 C0.67 3.35 0.34 1.7 0 0 Z " fill="#AAAAAA" transform="translate(83,273)"/>
<path d="M0 0 C0.66 0.66 1.32 1.32 2 2 C5.59679066 1.67673447 5.59679066 1.67673447 9 1 C9 2.65 9 4.3 9 6 C8.278125 5.814375 7.55625 5.62875 6.8125 5.4375 C3.8527768 4.97709861 1.88369435 5.29856083 -1 6 C-1.66 6 -2.32 6 -3 6 C-3 4.68 -3 3.36 -3 2 C-2.01 2 -1.02 2 0 2 C0 1.34 0 0.68 0 0 Z " fill="#A4A4A4" transform="translate(217,215)"/>
<path d="M0 0 C1.65 0 3.3 0 5 0 C5 0.66 5 1.32 5 2 C5.99 2.33 6.98 2.66 8 3 C7.34 3 6.68 3 6 3 C6 3.66 6 4.32 6 5 C3.69 5.33 1.38 5.66 -1 6 C-0.67 4.02 -0.34 2.04 0 0 Z " fill="#959595" transform="translate(328,325)"/>
<path d="M0 0 C2.125 0.375 2.125 0.375 4 1 C4 2.65 4 4.3 4 6 C2.35 6.33 0.7 6.66 -1 7 C-1.625 4.625 -1.625 4.625 -2 2 C-1.34 1.34 -0.68 0.68 0 0 Z " fill="#BBBBBB" transform="translate(271,70)"/>
<path d="M0 0 C2.31 0.33 4.62 0.66 7 1 C7.33 2.32 7.66 3.64 8 5 C4.71303767 5.79953138 3.28976808 6.09658936 0 5 C-0.33 4.01 -0.66 3.02 -1 2 C-0.67 1.34 -0.34 0.68 0 0 Z " fill="#9A9A9A" transform="translate(270,325)"/>
<path d="M0 0 C3.63 0 7.26 0 11 0 C10.67 1.32 10.34 2.64 10 4 C7.69 4 5.38 4 3 4 C3 3.01 3 2.02 3 1 C2.34 1 1.68 1 1 1 C0.67 1.99 0.34 2.98 0 4 C0 2.68 0 1.36 0 0 Z " fill="#ABABAB" transform="translate(248,265)"/>
<path d="M0 0 C0.99 0 1.98 0 3 0 C3.33 0.99 3.66 1.98 4 3 C4 2.01 4 1.02 4 0 C5.98 0 7.96 0 10 0 C9.67 0.99 9.34 1.98 9 3 C5.82757352 4.31035007 3.44118336 5 0 5 C0 3.35 0 1.7 0 0 Z " fill="#B0B0B0" transform="translate(191,256)"/>
<path d="M0 0 C1.32 0 2.64 0 4 0 C4.33 1.65 4.66 3.3 5 5 C1.8035914 6.06546953 -0.65747276 6.07427838 -4 6 C-4 4.68 -4 3.36 -4 2 C-3.01 2 -2.02 2 -1 2 C-0.67 1.34 -0.34 0.68 0 0 Z " fill="#B1B1B1" transform="translate(96,244)"/>
<path d="M0 0 C0.598125 0.33 1.19625 0.66 1.8125 1 C4.05386471 2.20787988 4.05386471 2.20787988 7 2 C7 3.32 7 4.64 7 6 C3.7 6 0.4 6 -3 6 C-3 4.35 -3 2.7 -3 1 C-2.01 2.485 -2.01 2.485 -1 4 C-0.67 2.68 -0.34 1.36 0 0 Z " fill="#A7A7A7" transform="translate(324,225)"/>
<path d="M0 0 C0.33 0 0.66 0 1 0 C1 2.31 1 4.62 1 7 C1.66 7 2.32 7 3 7 C3 5.02 3 3.04 3 1 C4.32 1.66 5.64 2.32 7 3 C7 4.32 7 5.64 7 7 C4.29120665 8.35439668 1.99066732 8.06501451 -1 8 C-1.33 7.34 -1.66 6.68 -2 6 C-1.34 6 -0.68 6 0 6 C0 4.02 0 2.04 0 0 Z " fill="#9D9D9D" transform="translate(236,119)"/>
<path d="M0 0 C2.0625 0.4375 2.0625 0.4375 4 1 C4 2.65 4 4.3 4 6 C2.125 6.625 2.125 6.625 0 7 C-0.66 6.34 -1.32 5.68 -2 5 C-1.46428571 1.46428571 -1.46428571 1.46428571 0 0 Z " fill="#B9B9B9" transform="translate(267,88)"/>
<path d="M0 0 C2.0625 0.4375 2.0625 0.4375 4 1 C4 2.65 4 4.3 4 6 C2.125 6.625 2.125 6.625 0 7 C-0.66 6.34 -1.32 5.68 -2 5 C-1.46428571 1.46428571 -1.46428571 1.46428571 0 0 Z " fill="#B9B9B9" transform="translate(222,88)"/>
<path d="M0 0 C1.65 0 3.3 0 5 0 C5.33 2.31 5.66 4.62 6 7 C4.02 7 2.04 7 0 7 C0 4.69 0 2.38 0 0 Z " fill="#A8A8A8" transform="translate(217,70)"/>
<path d="M0 0 C1.65 0 3.3 0 5 0 C5.33 2.31 5.66 4.62 6 7 C4.02 7 2.04 7 0 7 C0 4.69 0 2.38 0 0 Z " fill="#A8A8A8" transform="translate(185,70)"/>
<path d="M0 0 C1.65 0 3.3 0 5 0 C5.33 2.31 5.66 4.62 6 7 C4.02 7 2.04 7 0 7 C0 4.69 0 2.38 0 0 Z " fill="#A8A8A8" transform="translate(120,70)"/>
<path d="M0 0 C0 0.66 0 1.32 0 2 C0.99 2 1.98 2 3 2 C2.67 3.32 2.34 4.64 2 6 C1.34 6 0.68 6 0 6 C0 5.01 0 4.02 0 3 C-0.99 3 -1.98 3 -3 3 C-3.33 3.66 -3.66 4.32 -4 5 C-3.01 5.33 -2.02 5.66 -1 6 C-2.65 5.67 -4.3 5.34 -6 5 C-6 3.68 -6 2.36 -6 1 C-4 0 -4 0 0 0 Z " fill="#9D9D9D" transform="translate(79,334)"/>
<path d="M0 0 C0.78375 0.04125 1.5675 0.0825 2.375 0.125 C3.5 3.875 3.5 3.875 2.375 6.125 C0 5.8125 0 5.8125 -2.625 5.125 C-3.285 4.135 -3.945 3.145 -4.625 2.125 C-2.625 0.125 -2.625 0.125 0 0 Z " fill="#B0B0B0" transform="translate(83.625,325.875)"/>
<path d="M0 0 C0.33 0 0.66 0 1 0 C1 1.98 1 3.96 1 6 C-1.64 6 -4.28 6 -7 6 C-7 4.68 -7 3.36 -7 2 C-4.69 2 -2.38 2 0 2 C0 1.34 0 0.68 0 0 Z " fill="#B1B1B1" transform="translate(332,244)"/>
<path d="M0 0 C0.66 0.66 1.32 1.32 2 2 C2.66 2 3.32 2 4 2 C4 2.99 4 3.98 4 5 C1.29120665 6.35439668 -1.00933268 6.06501451 -4 6 C-4.33 4.35 -4.66 2.7 -5 1 C-2 0 -2 0 0 0 Z " fill="#B2B2B2" transform="translate(266,225)"/>
<path d="M0 0 C0.66 0 1.32 0 2 0 C2.66 0.66 3.32 1.32 4 2 C4.66 2 5.32 2 6 2 C6 2.66 6 3.32 6 4 C6.66 4 7.32 4 8 4 C7.67 4.66 7.34 5.32 7 6 C4.36 6 1.72 6 -1 6 C-1.042721 4.33388095 -1.04063832 2.66617115 -1 1 C-0.67 0.67 -0.34 0.34 0 0 Z " fill="#A1A1A1" transform="translate(168,325)"/>
<path d="M0 0 C0.66 0 1.32 0 2 0 C2.66 0.66 3.32 1.32 4 2 C4.66 2 5.32 2 6 2 C6 3.32 6 4.64 6 6 C3.69 6 1.38 6 -1 6 C-1.625 4.125 -1.625 4.125 -2 2 C-1.34 1.34 -0.68 0.68 0 0 Z " fill="#979797" transform="translate(241,325)"/>
<path d="M0 0 C1.98 0.99 1.98 0.99 4 2 C4.33 1.34 4.66 0.68 5 0 C5.66 0 6.32 0 7 0 C7.33 1.98 7.66 3.96 8 6 C7.236875 5.814375 6.47375 5.62875 5.6875 5.4375 C2.91032625 4.77180827 2.91032625 4.77180827 0 6 C0 4.02 0 2.04 0 0 Z " fill="#8D8D8D" transform="translate(119,325)"/>
<path d="M0 0 C0.33 1.32 0.66 2.64 1 4 C-2.37817425 4.84454356 -4.67465243 5.10844919 -8 4 C-7.67 3.01 -7.34 2.02 -7 1 C-4.53721199 -0.231394 -2.7204945 -0.07159196 0 0 Z " fill="#B8B8B8" transform="translate(146,255)"/>
<path d="M0 0 C-0.33 1.32 -0.66 2.64 -1 4 C-2.45945288 3.91291331 -3.91765868 3.80473093 -5.375 3.6875 C-6.18710938 3.62949219 -6.99921875 3.57148438 -7.8359375 3.51171875 C-10 3 -10 3 -12 0 C-10.37585622 -0.19477739 -8.75063577 -0.38059458 -7.125 -0.5625 C-6.22007812 -0.66691406 -5.31515625 -0.77132812 -4.3828125 -0.87890625 C-2 -1 -2 -1 0 0 Z " fill="#ABABAB" transform="translate(254,227)"/>
<path d="M0 0 C3.3 0 6.6 0 10 0 C9.67 1.32 9.34 2.64 9 4 C6.03 4 3.06 4 0 4 C0 2.68 0 1.36 0 0 Z " fill="#ADADAD" transform="translate(188,217)"/>
<path d="M0 0 C3.63 0 7.26 0 11 0 C10 3 10 3 8 5 C6.02 4.34 4.04 3.68 2 3 C1.34 3.66 0.68 4.32 0 5 C0 3.35 0 1.7 0 0 Z " fill="#9A9A9A" transform="translate(119,207)"/>
<path d="M0 0 C3.96 0 7.92 0 12 0 C11.67 1.32 11.34 2.64 11 4 C10.34 4 9.68 4 9 4 C8.67 3.34 8.34 2.68 8 2 C7.34 2 6.68 2 6 2 C5.67 2.66 5.34 3.32 5 4 C3.0625 3.6875 3.0625 3.6875 1 3 C0.67 2.01 0.34 1.02 0 0 Z " fill="#ACACAC" transform="translate(252,207)"/>
<path d="M0 0 C3.3 0 6.6 0 10 0 C9.67 1.32 9.34 2.64 9 4 C6.36 4 3.72 4 1 4 C0.67 2.68 0.34 1.36 0 0 Z " fill="#B1B1B1" transform="translate(326,265)"/>
<path d="M0 0 C2.31 0.33 4.62 0.66 7 1 C7 1.99 7 2.98 7 4 C3.30581799 5.231394 0.7943739 4.64432764 -3 4 C-2.67 3.01 -2.34 2.02 -2 1 C-1.34 1.33 -0.68 1.66 0 2 C0 1.34 0 0.68 0 0 Z " fill="#AEAEAE" transform="translate(129,265)"/>
<path d="M0 0 C0.99 1.485 0.99 1.485 2 3 C2.66 2.34 3.32 1.68 4 1 C7.125 0.875 7.125 0.875 10 1 C10 2.32 10 3.64 10 5 C6.7 5 3.4 5 0 5 C0 3.35 0 1.7 0 0 Z " fill="#A6A6A6" transform="translate(322,216)"/>
<path d="M0 0 C1.67542976 0.28604898 3.34385343 0.61781233 5 1 C5 2.65 5 4.3 5 6 C0.25 6.125 0.25 6.125 -2 5 C-1.125 1.125 -1.125 1.125 0 0 Z " fill="#ACACAC" transform="translate(215,121)"/>
<path d="M0 0 C2.31 0.66 4.62 1.32 7 2 C7.33 1.34 7.66 0.68 8 0 C8 0.99 8 1.98 8 3 C6.68 3 5.36 3 4 3 C4 3.66 4 4.32 4 5 C5.32 4.67 6.64 4.34 8 4 C8 4.66 8 5.32 8 6 C5.36 6 2.72 6 0 6 C0 4.02 0 2.04 0 0 Z " fill="#989898" transform="translate(356,71)"/>
<path d="M0 0 C0.66 0.99 1.32 1.98 2 3 C2.99 2.67 3.98 2.34 5 2 C5 3.32 5 4.64 5 6 C2.03 6 -0.94 6 -4 6 C-4 4.68 -4 3.36 -4 2 C-3.01 2.33 -2.02 2.66 -1 3 C-1.33 3.33 -1.66 3.66 -2 4 C-1.34 2.68 -0.68 1.36 0 0 Z " fill="#868686" transform="translate(96,301)"/>
<path d="M0 0 C0 1.98 0 3.96 0 6 C-2.31 6 -4.62 6 -7 6 C-7.33 5.34 -7.66 4.68 -8 4 C-6.27302455 0.54604909 -3.70696841 0 0 0 Z " fill="#AAAAAA" transform="translate(245,283)"/>
<path d="M0 0 C0 1.65 0 3.3 0 5 C-0.33 4.01 -0.66 3.02 -1 2 C-1.66 2 -2.32 2 -3 2 C-3 2.99 -3 3.98 -3 5 C-4.65 5 -6.3 5 -8 5 C-8.33 3.68 -8.66 2.36 -9 1 C-1.125 0 -1.125 0 0 0 Z " fill="#ADADAD" transform="translate(206,274)"/>
<path d="M0 0 C0.99 0 1.98 0 3 0 C3 1.98 3 3.96 3 6 C0.36 6 -2.28 6 -5 6 C-4.67 5.34 -4.34 4.68 -4 4 C-3.01 4 -2.02 4 -1 4 C-0.67 2.68 -0.34 1.36 0 0 Z " fill="#C8C8C8" transform="translate(138,265)"/>
<path d="M0 0 C1.6396875 0.2475 1.6396875 0.2475 3.3125 0.5 C6.87525873 1.06718184 6.87525873 1.06718184 10 1 C10 2.32 10 3.64 10 5 C6.7 5 3.4 5 0 5 C0 3.35 0 1.7 0 0 Z " fill="#A6A6A6" transform="translate(276,255)"/>
<path d="M0 0 C3.96 0 7.92 0 12 0 C11.67 0.99 11.34 1.98 11 3 C8.97905928 3 6.95802 2.9787351 4.9375 2.9375 C2.06540208 2.78892965 2.06540208 2.78892965 0 4 C0 2.68 0 1.36 0 0 Z " fill="#A7A7A7" transform="translate(274,246)"/>
<path d="M0 0 C0.66 0 1.32 0 2 0 C2.33 0.66 2.66 1.32 3 2 C4.98 2 6.96 2 9 2 C9.33 2.99 9.66 3.98 10 5 C8.63875 4.9690625 8.63875 4.9690625 7.25 4.9375 C4.57327412 4.9889755 2.53011948 5.2215017 0 6 C0 4.02 0 2.04 0 0 Z " fill="#B5B5B5" transform="translate(121,225)"/>
<path d="M0 0 C2.64 0 5.28 0 8 0 C7.34 1.65 6.68 3.3 6 5 C3.03 4.505 3.03 4.505 0 4 C0 2.68 0 1.36 0 0 Z " fill="#B6B6B6" transform="translate(292,217)"/>
<path d="M0 0 C2.97 0.495 2.97 0.495 6 1 C6 2.65 6 4.3 6 6 C4.02 6 2.04 6 0 6 C0 4.02 0 2.04 0 0 Z " fill="#B6B6B6" transform="translate(249,215)"/>
<path d="M0 0 C1.4540625 0.0309375 1.4540625 0.0309375 2.9375 0.0625 C2.9375 1.7125 2.9375 3.3625 2.9375 5.0625 C2.2775 4.7325 1.6175 4.4025 0.9375 4.0625 C0.9375 3.4025 0.9375 2.7425 0.9375 2.0625 C0.2775 2.0625 -0.3825 2.0625 -1.0625 2.0625 C-1.0625 3.3825 -1.0625 4.7025 -1.0625 6.0625 C-2.3825 5.7325 -3.7025 5.4025 -5.0625 5.0625 C-3.9375 0.08035714 -3.9375 0.08035714 0 0 Z " fill="#A9A9A9" transform="translate(198.0625,142.9375)"/>
<path d="M0 0 C0 1.98 0 3.96 0 6 C-0.66 5.67 -1.32 5.34 -2 5 C-2 4.34 -2 3.68 -2 3 C-3.65 2.67 -5.3 2.34 -7 2 C-7.33 2.99 -7.66 3.98 -8 5 C-8.33 3.35 -8.66 1.7 -9 0 C-5.52176885 -1.15941038 -3.54104422 -0.70820884 0 0 Z " fill="#9D9D9D" transform="translate(255,142)"/>
<path d="M0 0 C1.65 0 3.3 0 5 0 C5.33 1.32 5.66 2.64 6 4 C6.66 3.01 7.32 2.02 8 1 C8 2.65 8 4.3 8 6 C5.69 5.67 3.38 5.34 1 5 C0.67 3.35 0.34 1.7 0 0 Z " fill="#ADADAD" transform="translate(243,121)"/>
<path d="M0 0 C1.66611905 -0.042721 3.33382885 -0.04063832 5 0 C6 1 6 1 6.0625 4.0625 C6.041875 5.031875 6.02125 6.00125 6 7 C5.34 7 4.68 7 4 7 C3.67 5.35 3.34 3.7 3 2 C2.67 3.65 2.34 5.3 2 7 C1.34 7 0.68 7 0 7 C0 4.69 0 2.38 0 0 Z " fill="#949494" transform="translate(348,70)"/>
<path d="M0 0 C2 1 2 1 2.8515625 3.06640625 C3.10679687 3.89011719 3.36203125 4.71382813 3.625 5.5625 C3.88539063 6.38878906 4.14578125 7.21507813 4.4140625 8.06640625 C4.60742188 8.70449219 4.80078125 9.34257813 5 10 C4.34 10 3.68 10 3 10 C2.67 9.34 2.34 8.68 2 8 C-0.02463255 7.34786708 -0.02463255 7.34786708 -2 7 C-1.125 1.125 -1.125 1.125 0 0 Z " fill="#8E8E8E" transform="translate(143,67)"/>
<path d="M0 0 C1.65 0 3.3 0 5 0 C5.625 1.875 5.625 1.875 6 4 C5.34 4.66 4.68 5.32 4 6 C1.375 5.625 1.375 5.625 -1 5 C-1 2 -1 2 0 0 Z " fill="#ABABAB" transform="translate(206,326)"/>
<path d="M0 0 C0.78375 0.04125 1.5675 0.0825 2.375 0.125 C2.705 1.445 3.035 2.765 3.375 4.125 C0.075 4.125 -3.225 4.125 -6.625 4.125 C-6.295 3.135 -5.965 2.145 -5.625 1.125 C-5.295 1.455 -4.965 1.785 -4.625 2.125 C-2.625 0.125 -2.625 0.125 0 0 Z " fill="#B3B3B3" transform="translate(241.625,264.875)"/>
<path d="M0 0 C0.66 0 1.32 0 2 0 C2 0.66 2 1.32 2 2 C2.66 2 3.32 2 4 2 C4 3.32 4 4.64 4 6 C2.02 6 0.04 6 -2 6 C-2.33 4.68 -2.66 3.36 -3 2 C-2.01 2 -1.02 2 0 2 C0 1.34 0 0.68 0 0 Z " fill="#B6B6B6" transform="translate(159,263)"/>
<path d="M0 0 C3.33333333 0 6.66666667 0 10 0 C10.33 0.99 10.66 1.98 11 3 C8.24921116 3.91692961 6.64051087 4.10886083 3.8125 4.0625 C1.9253125 4.0315625 1.9253125 4.0315625 0 4 C0 2.68 0 1.36 0 0 Z " fill="#A5A5A5" transform="translate(179,256)"/>
<path d="M0 0 C2.31 0 4.62 0 7 0 C7 1.32 7 2.64 7 4 C3.94736336 4.98120464 2.05263664 4.98120464 -1 4 C-0.67 2.68 -0.34 1.36 0 0 Z " fill="#B7B7B7" transform="translate(247,255)"/>
<path d="M0 0 C0.66 0 1.32 0 2 0 C2 0.66 2 1.32 2 2 C2.66 2 3.32 2 4 2 C4 3.32 4 4.64 4 6 C2.02 6 0.04 6 -2 6 C-2.33 4.68 -2.66 3.36 -3 2 C-2.01 2 -1.02 2 0 2 C0 1.34 0 0.68 0 0 Z " fill="#B6B6B6" transform="translate(186,234)"/>
<path d="M0 0 C2.64 0 5.28 0 8 0 C8.33 1.32 8.66 2.64 9 4 C7.02 4 5.04 4 3 4 C3 3.34 3 2.68 3 2 C2.34 2 1.68 2 1 2 C0.67 2.66 0.34 3.32 0 4 C0 2.68 0 1.36 0 0 Z " fill="#ADADAD" transform="translate(86,226)"/>
<path d="M0 0 C0.33 0 0.66 0 1 0 C1 1.98 1 3.96 1 6 C-1.97 6 -4.94 6 -8 6 C-7.67 4.68 -7.34 3.36 -7 2 C-5 2 -3 2 -1 2 C-0.67 1.34 -0.34 0.68 0 0 Z " fill="#A2A2A2" transform="translate(128,215)"/>
<path d="M0 0 C0.66 0 1.32 0 2 0 C2 3.3 2 6.6 2 10 C1.34 10 0.68 10 0 10 C0 8.02 0 6.04 0 4 C-2.51083114 5.25541557 -2.87125446 6.50063488 -4 9 C-4 7.35 -4 5.7 -4 4 C-2.68 3.67 -1.36 3.34 0 3 C0 2.01 0 1.02 0 0 Z " fill="#8B8B8B" transform="translate(288,67)"/>
<path d="M0 0 C0.99 0 1.98 0 3 0 C3.33 1.98 3.66 3.96 4 6 C2.35 6.33 0.7 6.66 -1 7 C-1.04254356 5.00045254 -1.04080783 2.99958364 -1 1 C-0.67 0.67 -0.34 0.34 0 0 Z " fill="#B4B4B4" transform="translate(172,70)"/>
<path d="M0 0 C0 1.98 0 3.96 0 6 C-1.98 6 -3.96 6 -6 6 C-6 4.35 -6 2.7 -6 1 C-3.92446352 0.4465236 -2.15634036 0 0 0 Z " fill="#B1B1B1" transform="translate(158,301)"/>
<path d="M0 0 C0.66 0.33 1.32 0.66 2 1 C2 2.65 2 4.3 2 6 C1.236875 5.835 0.47375 5.67 -0.3125 5.5 C-3.03596236 4.90854604 -3.03596236 4.90854604 -6 5 C-5.67 4.01 -5.34 3.02 -5 2 C-3.68 2 -2.36 2 -1 2 C-0.67 1.34 -0.34 0.68 0 0 Z " fill="#B5B5B5" transform="translate(353,263)"/>
<path d="M0 0 C-0.33 1.32 -0.66 2.64 -1 4 C-3.31 4 -5.62 4 -8 4 C-8 2.68 -8 1.36 -8 0 C-4.71023192 -1.09658936 -3.28696233 -0.79953138 0 0 Z " fill="#BBBBBB" transform="translate(278,265)"/>
<path d="M0 0 C3.4375 0.1875 3.4375 0.1875 7 1 C7.66 2.32 8.32 3.64 9 5 C6.03 5 3.06 5 0 5 C-0.33 3.68 -0.66 2.36 -1 1 C-0.67 0.67 -0.34 0.34 0 0 Z " fill="#A2A2A2" transform="translate(306,255)"/>
<path d="M0 0 C0.33 0.66 0.66 1.32 1 2 C3.42459787 2.83492354 3.42459787 2.83492354 6 3 C6.66 2.34 7.32 1.68 8 1 C8 2.65 8 4.3 8 6 C5.36 6 2.72 6 0 6 C0 4.02 0 2.04 0 0 Z " fill="#AAAAAA" transform="translate(278,234)"/>
<path d="M0 0 C5.75 -0.125 5.75 -0.125 8 1 C7.67 1.99 7.34 2.98 7 4 C4.69 4 2.38 4 0 4 C0 2.68 0 1.36 0 0 Z " fill="#C2C2C2" transform="translate(303,217)"/>
<path d="M0 0 C0.33 0.66 0.66 1.32 1 2 C3.64 2 6.28 2 9 2 C8.67 2.99 8.34 3.98 8 5 C7.34 4.67 6.68 4.34 6 4 C5.67 4.66 5.34 5.32 5 6 C3.35 6 1.7 6 0 6 C0 4.02 0 2.04 0 0 Z " fill="#AAAAAA" transform="translate(237,205)"/>
<path d="M0 0 C2 2 2 2 2 5 C1.34 5 0.68 5 0 5 C-0.66 4.34 -1.32 3.68 -2 3 C-1.67 3.33 -1.34 3.66 -1 4 C-3.89234315 4.82638376 -5.88742431 5 -9 5 C-9 4.34 -9 3.68 -9 3 C-6.03 2.01 -3.06 1.02 0 0 Z " fill="#7D7D7D" transform="translate(233,184)"/>
<path d="M0 0 C0.66 0 1.32 0 2 0 C2.33 0.66 2.66 1.32 3 2 C4.32 1.34 5.64 0.68 7 0 C7 1.98 7 3.96 7 6 C6.21625 5.649375 5.4325 5.29875 4.625 4.9375 C3.75875 4.628125 2.8925 4.31875 2 4 C1.01 4.495 1.01 4.495 0 5 C0 3.35 0 1.7 0 0 Z " fill="#818181" transform="translate(181,325)"/>
<path d="M0 0 C0.66 0 1.32 0 2 0 C2.33 0.66 2.66 1.32 3 2 C3.99 2 4.98 2 6 2 C5.67 2.99 5.34 3.98 5 5 C1.86650268 6.04449911 1.01031744 5.93423645 -2 5 C-1.34 3.35 -0.68 1.7 0 0 Z " fill="#ADADAD" transform="translate(167,273)"/>
<path d="M0 0 C1.98 0 3.96 0 6 0 C6.33 1.32 6.66 2.64 7 4 C5.824375 4.2165625 5.824375 4.2165625 4.625 4.4375 C2.03578982 4.87798925 2.03578982 4.87798925 0 6 C0 4.02 0 2.04 0 0 Z " fill="#ABABAB" transform="translate(198,265)"/>
<path d="M0 0 C2.97 0.33 5.94 0.66 9 1 C9 1.99 9 2.98 9 4 C7.02 4 5.04 4 3 4 C3 3.34 3 2.68 3 2 C2.34 2 1.68 2 1 2 C0.67 2.66 0.34 3.32 0 4 C0 2.68 0 1.36 0 0 Z " fill="#A9A9A9" transform="translate(346,255)"/>
<path d="M0 0 C2.64 0 5.28 0 8 0 C7 3 7 3 6 5 C4 5 2 5 0 5 C0 3.35 0 1.7 0 0 Z " fill="#9A9A9A" transform="translate(188,246)"/>
<path d="M0 0 C3.3 0 6.6 0 10 0 C9.01 0.495 9.01 0.495 8 1 C8 1.99 8 2.98 8 4 C5.36 3.67 2.72 3.34 0 3 C0 2.01 0 1.02 0 0 Z " fill="#B0B0B0" transform="translate(117,246)"/>
<path d="M0 0 C2.64 0 5.28 0 8 0 C7.67 1.32 7.34 2.64 7 4 C4.66666667 4 2.33333333 4 0 4 C0 2.68 0 1.36 0 0 Z " fill="#B6B6B6" transform="translate(222,236)"/>
<path d="M0 0 C2.31 0 4.62 0 7 0 C7 0.99 7 1.98 7 3 C7.99 3.33 8.98 3.66 10 4 C6.7 4 3.4 4 0 4 C0 2.68 0 1.36 0 0 Z " fill="#A5A5A5" transform="translate(323,236)"/>
<path d="M0 0 C2.97 0.33 5.94 0.66 9 1 C9 1.99 9 2.98 9 4 C5.7 4 2.4 4 -1 4 C-0.67 2.68 -0.34 1.36 0 0 Z " fill="#AAAAAA" transform="translate(292,226)"/>
<path d="M0 0 C0.33 0.66 0.66 1.32 1 2 C2.32 2 3.64 2 5 2 C5.33 3.65 5.66 5.3 6 7 C3 7 3 7 0 6 C0 4.02 0 2.04 0 0 Z " fill="#B4B4B4" transform="translate(321,205)"/>
<path d="M0 0 C2.64 0 5.28 0 8 0 C7.67 1.32 7.34 2.64 7 4 C4.69 4 2.38 4 0 4 C0 2.68 0 1.36 0 0 Z " fill="#AFAFAF" transform="translate(152,207)"/>
<path d="M0 0 C1.65 0 3.3 0 5 0 C5.68707555 2.49064888 6 4.37886292 6 7 C4 6 4 6 2 4 C1.67 4.99 1.34 5.98 1 7 C0.67 4.69 0.34 2.38 0 0 Z " fill="#8E8E8E" transform="translate(224,119)"/>
<path d="M0 0 C0.66 0 1.32 0 2 0 C2 1.98 2 3.96 2 6 C0.35 6 -1.3 6 -3 6 C-3.33 4.68 -3.66 3.36 -4 2 C-3.01 2 -2.02 2 -1 2 C-0.67 1.34 -0.34 0.68 0 0 Z " fill="#969696" transform="translate(145,325)"/>
<path d="M0 0 C-0.33 1.65 -0.66 3.3 -1 5 C-3.97 4.505 -3.97 4.505 -7 4 C-6.67 2.68 -6.34 1.36 -6 0 C-2.25 -1.125 -2.25 -1.125 0 0 Z " fill="#BABABA" transform="translate(286,284)"/>
<path d="M0 0 C2.64 0 5.28 0 8 0 C7.67 1.32 7.34 2.64 7 4 C4.69 4 2.38 4 0 4 C0 2.68 0 1.36 0 0 Z " fill="#B0B0B0" transform="translate(99,275)"/>
<path d="M0 0 C0 1.32 0 2.64 0 4 C-5.75 4.125 -5.75 4.125 -8 3 C-8 2.01 -8 1.02 -8 0 C-5.13822943 -1.43088528 -3.06624227 -0.59991697 0 0 Z " fill="#AFAFAF" transform="translate(364,256)"/>
<path d="M0 0 C0.598125 0.185625 1.19625 0.37125 1.8125 0.5625 C4.16408762 1.22093687 4.16408762 1.22093687 7 0 C7.33 1.32 7.66 2.64 8 4 C5.16032769 4 2.76264289 3.59732819 0 3 C0 2.01 0 1.02 0 0 Z " fill="#AFAFAF" transform="translate(111,255)"/>
<path d="M0 0 C3.3 0 6.6 0 10 0 C9.67 1.32 9.34 2.64 9 4 C7.68 3.67 6.36 3.34 5 3 C5 2.34 5 1.68 5 1 C4.34 1 3.68 1 3 1 C2.67 1.99 2.34 2.98 2 4 C1.34 2.68 0.68 1.36 0 0 Z " fill="#A2A2A2" transform="translate(211,246)"/>
<path d="M0 0 C1.31571603 0.2547514 2.62760376 0.52934141 3.9375 0.8125 C4.66839844 0.96332031 5.39929688 1.11414063 6.15234375 1.26953125 C6.76207031 1.51058594 7.37179687 1.75164062 8 2 C8.33 2.99 8.66 3.98 9 5 C6.03 5 3.06 5 0 5 C0 3.35 0 1.7 0 0 Z " fill="#A4A4A4" transform="translate(261,235)"/>
<path d="M0 0 C6.75 -0.125 6.75 -0.125 9 1 C8.67 1.99 8.34 2.98 8 4 C5.36 3.67 2.72 3.34 0 3 C0 2.01 0 1.02 0 0 Z " fill="#A7A7A7" transform="translate(77,217)"/>
<path d="M0 0 C2.64 0 5.28 0 8 0 C8 1.32 8 2.64 8 4 C5.69 4 3.38 4 1 4 C0.67 2.68 0.34 1.36 0 0 Z " fill="#ADADAD" transform="translate(141,207)"/>
<path d="M0 0 C1.32 0 2.64 0 4 0 C4 2.31 4 4.62 4 7 C2.35 7 0.7 7 -1 7 C-0.67 6.34 -0.34 5.68 0 5 C0.99 5.33 1.98 5.66 3 6 C3 5.34 3 4.68 3 4 C1.68 3.67 0.36 3.34 -1 3 C-0.67 2.01 -0.34 1.02 0 0 Z " fill="#AAAAAA" transform="translate(326,88)"/>
<path d="M0 0 C0.66 0 1.32 0 2 0 C2.33 0.66 2.66 1.32 3 2 C4.32 1.34 5.64 0.68 7 0 C7 1.65 7 3.3 7 5 C6.21625 4.814375 5.4325 4.62875 4.625 4.4375 C2.02910225 3.74037734 2.02910225 3.74037734 0 5 C0 3.35 0 1.7 0 0 Z " fill="#7C7C7C" transform="translate(254,325)"/>
<path d="M0 0 C3 2 3 2 3.6875 4.125 C3.790625 4.74375 3.89375 5.3625 4 6 C2.02 6 0.04 6 -2 6 C-2.33 4.35 -2.66 2.7 -3 1 C-2.01 0.67 -1.02 0.34 0 0 Z " fill="#ADADAD" transform="translate(273,283)"/>
<path d="M0 0 C0 1.32 0 2.64 0 4 C-2.64 4 -5.28 4 -8 4 C-8 3.01 -8 2.02 -8 1 C-5.07175348 0.02391783 -3.04386724 -0.08226668 0 0 Z " fill="#BABABA" transform="translate(295,275)"/>
<path d="M0 0 C0.66 0 1.32 0 2 0 C2 1.98 2 3.96 2 6 C0.02 6 -1.96 6 -4 6 C-3.67 4.68 -3.34 3.36 -3 2 C-2.01 2 -1.02 2 0 2 C0 1.34 0 0.68 0 0 Z " fill="#B1B1B1" transform="translate(283,215)"/>
<path d="M0 0 C0.66 1.32 1.32 2.64 2 4 C2.66 3.34 3.32 2.68 4 2 C4.66 2 5.32 2 6 2 C5.34 3.65 4.68 5.3 4 7 C1.525 6.01 1.525 6.01 -1 5 C-0.67 3.35 -0.34 1.7 0 0 Z " fill="#959595" transform="translate(315,325)"/>
<path d="M0 0 C0.99 0 1.98 0 3 0 C3 0.99 3 1.98 3 3 C3.33 2.01 3.66 1.02 4 0 C4.99 0 5.98 0 7 0 C7 1.32 7 2.64 7 4 C4.69 4 2.38 4 0 4 C0 2.68 0 1.36 0 0 Z " fill="#B7B7B7" transform="translate(300,275)"/>
<path d="M0 0 C1.98 0 3.96 0 6 0 C6 0.99 6 1.98 6 3 C6.66 3 7.32 3 8 3 C8.33 2.34 8.66 1.68 9 1 C9 1.99 9 2.98 9 4 C6.36 4 3.72 4 1 4 C0.67 2.68 0.34 1.36 0 0 Z " fill="#A7A7A7" transform="translate(73,265)"/>
<path d="M0 0 C2.31 0 4.62 0 7 0 C6.67 1.32 6.34 2.64 6 4 C4.02 4 2.04 4 0 4 C0 2.68 0 1.36 0 0 Z " fill="#B3B3B3" transform="translate(352,236)"/>
<path d="M0 0 C2.64 0 5.28 0 8 0 C8 1.32 8 2.64 8 4 C5.36 3.67 2.72 3.34 0 3 C0 2.01 0 1.02 0 0 Z " fill="#AEAEAE" transform="translate(354,217)"/>
<path d="M0 0 C1.65 0 3.3 0 5 0 C4.67 0.66 4.34 1.32 4 2 C3.34 1.67 2.68 1.34 2 1 C2 1.66 2 2.32 2 3 C2.66 3 3.32 3 4 3 C3.34 4.65 2.68 6.3 2 8 C1.01 7.67 0.02 7.34 -1 7 C-0.67 4.69 -0.34 2.38 0 0 Z " fill="#969696" transform="translate(180,141)"/>
<path d="M0 0 C2.31 0.33 4.62 0.66 7 1 C7.33 1.99 7.66 2.98 8 4 C5.36 4 2.72 4 0 4 C0 2.68 0 1.36 0 0 Z " fill="#ECECEC" transform="translate(238,90)"/>
<path d="M0 0 C2.31 0 4.62 0 7 0 C7 1.32 7 2.64 7 4 C5.02 4 3.04 4 1 4 C0.67 2.68 0.34 1.36 0 0 Z " fill="#909090" transform="translate(189,327)"/>
<path d="M0 0 C0.66 0 1.32 0 2 0 C2.33 1.98 2.66 3.96 3 6 C0.69 5.67 -1.62 5.34 -4 5 C-4 4.01 -4 3.02 -4 2 C-2.68 2 -1.36 2 0 2 C0 1.34 0 0.68 0 0 Z " fill="#8E8E8E" transform="translate(358,325)"/>
<path d="M0 0 C2.00720923 0.28674418 4.0085944 0.61866701 6 1 C5.67 1.99 5.34 2.98 5 4 C3.35 4.33 1.7 4.66 0 5 C-0.5625 3.0625 -0.5625 3.0625 -1 1 C-0.67 0.67 -0.34 0.34 0 0 Z " fill="#969696" transform="translate(96,326)"/>
<path d="M0 0 C1.66666667 0 3.33333333 0 5 0 C5 1.65 5 3.3 5 5 C3.0625 5.5625 3.0625 5.5625 1 6 C0 5 0 5 -0.0625 2.4375 C-0.041875 1.633125 -0.02125 0.82875 0 0 Z " fill="#AFAFAF" transform="translate(350,283)"/>
<path d="M0 0 C2.97 0.495 2.97 0.495 6 1 C5.67 2.32 5.34 3.64 5 5 C3.35 4.67 1.7 4.34 0 4 C0 2.68 0 1.36 0 0 Z " fill="#BFBFBF" transform="translate(253,284)"/>
<path d="M0 0 C0 2.31 0 4.62 0 7 C-1.9375 6.6875 -1.9375 6.6875 -4 6 C-4.33 5.01 -4.66 4.02 -5 3 C-2.25 0 -2.25 0 0 0 Z " fill="#BABABA" transform="translate(330,282)"/>
<path d="M0 0 C0.33 0.66 0.66 1.32 1 2 C2.98 2 4.96 2 7 2 C7 2.66 7 3.32 7 4 C4 6 4 6 0 6 C0 4.02 0 2.04 0 0 Z " fill="#A8A8A8" transform="translate(269,273)"/>
<path d="M0 0 C2.00720923 0.28674418 4.0085944 0.61866701 6 1 C5.67 2.32 5.34 3.64 5 5 C3.35 4.67 1.7 4.34 0 4 C-0.33 3.01 -0.66 2.02 -1 1 C-0.67 0.67 -0.34 0.34 0 0 Z " fill="#B3B3B3" transform="translate(322,255)"/>
<path d="M0 0 C2.31 0 4.62 0 7 0 C7 1.32 7 2.64 7 4 C4.69 4 2.38 4 0 4 C0 2.68 0 1.36 0 0 Z " fill="#A7A7A7" transform="translate(287,246)"/>
<path d="M0 0 C2.475 0.495 2.475 0.495 5 1 C5.33 3.31 5.66 5.62 6 8 C5.34 6.68 4.68 5.36 4 4 C3.01 4 2.02 4 1 4 C0.67 4.66 0.34 5.32 0 6 C0 4.02 0 2.04 0 0 Z " fill="#818181" transform="translate(309,69)"/>
<path d="M0 0 C0.33 0 0.66 0 1 0 C1 1.98 1 3.96 1 6 C-0.98 6 -2.96 6 -5 6 C-4.67 4.35 -4.34 2.7 -4 1 C-3.34 1.33 -2.68 1.66 -2 2 C-2 2.66 -2 3.32 -2 4 C-1.34 4 -0.68 4 0 4 C0 2.68 0 1.36 0 0 Z " fill="#8A8A8A" transform="translate(218,325)"/>
<path d="M0 0 C0.33 1.32 0.66 2.64 1 4 C-0.98 4.33 -2.96 4.66 -5 5 C-5 3.68 -5 2.36 -5 1 C-3.35 0.67 -1.7 0.34 0 0 Z " fill="#8D8D8D" transform="translate(126,302)"/>
<path d="M0 0 C1.2065625 0.0309375 1.2065625 0.0309375 2.4375 0.0625 C2.4375 1.7125 2.4375 3.3625 2.4375 5.0625 C0.7875 5.0625 -0.8625 5.0625 -2.5625 5.0625 C-3.125 3.125 -3.125 3.125 -3.5625 1.0625 C-2.5625 0.0625 -2.5625 0.0625 0 0 Z " fill="#BFBFBF" transform="translate(249.5625,283.9375)"/>
<path d="M0 0 C0 1.98 0 3.96 0 6 C-1.32 6 -2.64 6 -4 6 C-4.33 4.68 -4.66 3.36 -5 2 C-2 0 -2 0 0 0 Z " fill="#B6B6B6" transform="translate(157,273)"/>
<path d="M0 0 C2.31 0 4.62 0 7 0 C7 0.66 7 1.32 7 2 C4 4 4 4 0 4 C0 2.68 0 1.36 0 0 Z " fill="#ADADAD" transform="translate(178,217)"/>
<path d="M0 0 C2.64 0 5.28 0 8 0 C8 0.66 8 1.32 8 2 C5 4 5 4 2 4 C2 3.34 2 2.68 2 2 C1.34 2 0.68 2 0 2 C0 1.34 0 0.68 0 0 Z " fill="#B1B1B1" transform="translate(169,207)"/>
<path d="M0 0 C0.33 1.32 0.66 2.64 1 4 C1.66 4 2.32 4 3 4 C3.33 3.01 3.66 2.02 4 1 C4.99 1 5.98 1 7 1 C7 2.32 7 3.64 7 5 C4.69 5 2.38 5 0 5 C0 3.35 0 1.7 0 0 Z " fill="#767676" transform="translate(209,184)"/>
<path d="M0 0 C0.33 0.99 0.66 1.98 1 3 C1.66 3 2.32 3 3 3 C2.67 4.32 2.34 5.64 2 7 C1.01 7 0.02 7 -1 7 C-1.33 5.35 -1.66 3.7 -2 2 C-1.34 2 -0.68 2 0 2 C0 1.34 0 0.68 0 0 Z " fill="#D2D2D2" transform="translate(250,142)"/>
<path d="M0 0 C0.66 0 1.32 0 2 0 C2.144375 0.928125 2.28875 1.85625 2.4375 2.8125 C2.92100111 6.00725111 2.92100111 6.00725111 4 9 C2.68 8.67 1.36 8.34 0 8 C0 5.36 0 2.72 0 0 Z " fill="#A1A1A1" transform="translate(77,68)"/>
<path d="M0 0 C0.66 0 1.32 0 2 0 C2 3.3 2 6.6 2 10 C1.34 10 0.68 10 0 10 C-1.125 2.25 -1.125 2.25 0 0 Z " fill="#838383" transform="translate(205,67)"/>
<path d="M0 0 C0.66 0 1.32 0 2 0 C2 3.3 2 6.6 2 10 C1.34 10 0.68 10 0 10 C-1.125 2.25 -1.125 2.25 0 0 Z " fill="#838383" transform="translate(65,67)"/>
<path d="M0 0 C1.98 0 3.96 0 6 0 C5.67 1.32 5.34 2.64 5 4 C3.35 4 1.7 4 0 4 C0 2.68 0 1.36 0 0 Z " fill="#B3B3B3" transform="translate(174,275)"/>
<path d="M0 0 C1.4540625 0.0309375 1.4540625 0.0309375 2.9375 0.0625 C2.6075 1.3825 2.2775 2.7025 1.9375 4.0625 C0.6175 4.0625 -0.7025 4.0625 -2.0625 4.0625 C-2.0625 3.4025 -2.0625 2.7425 -2.0625 2.0625 C-2.7225 1.7325 -3.3825 1.4025 -4.0625 1.0625 C-3.0625 0.0625 -3.0625 0.0625 0 0 Z " fill="#C3C3C3" transform="translate(289.0625,264.9375)"/>
<path d="M0 0 C1.32 0 2.64 0 4 0 C4 1.65 4 3.3 4 5 C2.02 5 0.04 5 -2 5 C-1 2 -1 2 0 0 Z " fill="#AAAAAA" transform="translate(95,235)"/>
<path d="M0 0 C0 1.65 0 3.3 0 5 C-1.98 5 -3.96 5 -6 5 C-5.67 3.68 -5.34 2.36 -5 1 C-1.125 0 -1.125 0 0 0 Z " fill="#ACACAC" transform="translate(304,235)"/>
<path d="M0 0 C2.97 0.495 2.97 0.495 6 1 C6.33 2.32 6.66 3.64 7 5 C5.68 4.67 4.36 4.34 3 4 C3 3.34 3 2.68 3 2 C2.34 2 1.68 2 1 2 C1.33 2.99 1.66 3.98 2 5 C1.34 5 0.68 5 0 5 C0 3.35 0 1.7 0 0 Z " fill="#A6A6A6" transform="translate(197,235)"/>
<path d="M0 0 C1.98 0 3.96 0 6 0 C6 1.32 6 2.64 6 4 C4.02 4 2.04 4 0 4 C0 2.68 0 1.36 0 0 Z " fill="#B7B7B7" transform="translate(110,236)"/>
<path d="M0 0 C2.64 0 5.28 0 8 0 C7.67 1.32 7.34 2.64 7 4 C6.34 4 5.68 4 5 4 C5 3.34 5 2.68 5 2 C4.34 2 3.68 2 3 2 C2.67 2.66 2.34 3.32 2 4 C1.34 2.68 0.68 1.36 0 0 Z " fill="#B0B0B0" transform="translate(160,217)"/>
<path d="M0 0 C0.66 0 1.32 0 2 0 C2 1.98 2 3.96 2 6 C0.35 5.67 -1.3 5.34 -3 5 C-3 4.01 -3 3.02 -3 2 C-2.01 2 -1.02 2 0 2 C0 1.34 0 0.68 0 0 Z " fill="#BCBCBC" transform="translate(223,205)"/>
<path d="M0 0 C0.928125 0.2784375 0.928125 0.2784375 1.875 0.5625 C4.04160178 1.23686176 4.04160178 1.23686176 6 0 C6.33 1.65 6.66 3.3 7 5 C4.69 4.67 2.38 4.34 0 4 C0 2.68 0 1.36 0 0 Z " fill="#969696" transform="translate(205,144)"/>
<path d="M0 0 C0.33 0.66 0.66 1.32 1 2 C1.66 2 2.32 2 3 2 C2.67 3.65 2.34 5.3 2 7 C1.01 6.67 0.02 6.34 -1 6 C-1.042721 4.33388095 -1.04063832 2.66617115 -1 1 C-0.67 0.67 -0.34 0.34 0 0 Z " fill="#A5A5A5" transform="translate(228,142)"/>
<path d="M0 0 C0.33 0.66 0.66 1.32 1 2 C3.02463255 2.65213292 3.02463255 2.65213292 5 3 C5 3.99 5 4.98 5 6 C3.35 6 1.7 6 0 6 C0 4.02 0 2.04 0 0 Z " fill="#A7A7A7" transform="translate(291,71)"/>
<path d="M0 0 C1.32 0 2.64 0 4 0 C4.33 1.98 4.66 3.96 5 6 C3.68 5.67 2.36 5.34 1 5 C0.67 3.35 0.34 1.7 0 0 Z " fill="#A6A6A6" transform="translate(67,508)"/>
<path d="M0 0 C1.98 0 3.96 0 6 0 C6 1.32 6 2.64 6 4 C4.68 4 3.36 4 2 4 C2 3.34 2 2.68 2 2 C1.34 2 0.68 2 0 2 C0 1.34 0 0.68 0 0 Z " fill="#A9A9A9" transform="translate(134,326)"/>
<path d="M0 0 C1.65 0 3.3 0 5 0 C5 1.32 5 2.64 5 4 C3.35 4 1.7 4 0 4 C0 2.68 0 1.36 0 0 Z " fill="#B9B9B9" transform="translate(317,275)"/>
<path d="M0 0 C1.65 0 3.3 0 5 0 C5 1.32 5 2.64 5 4 C3.35 4 1.7 4 0 4 C0 2.68 0 1.36 0 0 Z " fill="#B9B9B9" transform="translate(123,275)"/>
<path d="M0 0 C2.475 0.495 2.475 0.495 5 1 C4.67 2.32 4.34 3.64 4 5 C2.68 5 1.36 5 0 5 C0 3.35 0 1.7 0 0 Z " fill="#B8B8B8" transform="translate(118,264)"/>
<path d="M0 0 C1.98 0 3.96 0 6 0 C5.67 0.99 5.34 1.98 5 3 C3.35 3.33 1.7 3.66 0 4 C-0.33 3.34 -0.66 2.68 -1 2 C-0.67 1.34 -0.34 0.68 0 0 Z " fill="#AEAEAE" transform="translate(73,246)"/>
<path d="M0 0 C1.98 0 3.96 0 6 0 C5.67 0.66 5.34 1.32 5 2 C5.33 2.33 5.66 2.66 6 3 C5.01 3.66 4.02 4.32 3 5 C3 4.01 3 3.02 3 2 C2.34 2 1.68 2 1 2 C0.67 2.66 0.34 3.32 0 4 C0 2.68 0 1.36 0 0 Z " fill="#A7A7A7" transform="translate(267,246)"/>
<path d="M0 0 C1.98 0 3.96 0 6 0 C6 0.99 6 1.98 6 3 C4.02 3.33 2.04 3.66 0 4 C0 2.68 0 1.36 0 0 Z " fill="#ADADAD" transform="translate(175,227)"/>
<path d="M0 0 C2 3.875 2 3.875 2 5 C0.02 5 -1.96 5 -4 5 C-4 3.68 -4 2.36 -4 1 C-2.68 0.67 -1.36 0.34 0 0 Z " fill="#ABABAB" transform="translate(244,216)"/>
<path d="M0 0 C1.32 0 2.64 0 4 0 C4 0.66 4 1.32 4 2 C3.34 2 2.68 2 2 2 C2.33 3.65 2.66 5.3 3 7 C2.01 7 1.02 7 0 7 C-0.93423645 3.98968256 -1.04449911 3.13349732 0 0 Z " fill="#9B9B9B" transform="translate(211,88)"/>
<path d="M0 0 C2.0625 0.4375 2.0625 0.4375 4 1 C2.90181099 4.29456702 2.08996146 5.45501927 -1 7 C-1.04254356 5.00045254 -1.04080783 2.99958364 -1 1 C-0.67 0.67 -0.34 0.34 0 0 Z " fill="#AFAFAF" transform="translate(246,70)"/>
<path d="M0 0 C0.33 0.66 0.66 1.32 1 2 C1.99 2.33 2.98 2.66 4 3 C3.67 4.32 3.34 5.64 3 7 C1.68 6.34 0.36 5.68 -1 5 C-0.67 3.35 -0.34 1.7 0 0 Z " fill="#CACACA" transform="translate(153,283)"/>
<path d="M0 0 C0.66 0.66 1.32 1.32 2 2 C2.99 1.34 3.98 0.68 5 0 C5.33 1.32 5.66 2.64 6 4 C4.35 4.33 2.7 4.66 1 5 C0.67 3.35 0.34 1.7 0 0 Z " fill="#B2B2B2" transform="translate(291,255)"/>
<path d="M0 0 C1.32 0 2.64 0 4 0 C4 1.32 4 2.64 4 4 C2.68 4.33 1.36 4.66 0 5 C-0.5625 3.0625 -0.5625 3.0625 -1 1 C-0.67 0.67 -0.34 0.34 0 0 Z " fill="#B8B8B8" transform="translate(237,226)"/>
<path d="M0 0 C2.31 0.66 4.62 1.32 7 2 C7 2.66 7 3.32 7 4 C5.02 4.33 3.04 4.66 1 5 C0.67 3.35 0.34 1.7 0 0 Z " fill="#ACACAC" transform="translate(263,216)"/>
<path d="M0 0 C2.31 0 4.62 0 7 0 C7 1.32 7 2.64 7 4 C4.03 3.505 4.03 3.505 1 3 C0.67 2.01 0.34 1.02 0 0 Z " fill="#ADADAD" transform="translate(230,217)"/>
<path d="M0 0 C0.33 0 0.66 0 1 0 C1 1.98 1 3.96 1 6 C-0.65 5.67 -2.3 5.34 -4 5 C-3.67 4.01 -3.34 3.02 -3 2 C-2.34 2 -1.68 2 -1 2 C-0.67 1.34 -0.34 0.68 0 0 Z " fill="#ADADAD" transform="translate(201,205)"/>
<path d="M0 0 C1.65 0 3.3 0 5 0 C4.67 1.32 4.34 2.64 4 4 C2.35 3.67 0.7 3.34 -1 3 C-0.67 2.01 -0.34 1.02 0 0 Z " fill="#B1B1B1" transform="translate(132,207)"/>
<path d="M0 0 C2.475 0.495 2.475 0.495 5 1 C5 1.99 5 2.98 5 4 C3.35 4 1.7 4 0 4 C0 2.68 0 1.36 0 0 Z " fill="#F2F2F2" transform="translate(262,72)"/>
<path d="M0 0 C0.33 0.66 0.66 1.32 1 2 C1.66 2.33 2.32 2.66 3 3 C2.34 3 1.68 3 1 3 C1 3.66 1 4.32 1 5 C0.01 5.33 -0.98 5.66 -2 6 C-2.33 4.35 -2.66 2.7 -3 1 C-2.01 0.67 -1.02 0.34 0 0 Z " fill="#ADADAD" transform="translate(291,283)"/>
<path d="M0 0 C1.98 0.66 3.96 1.32 6 2 C6 2.66 6 3.32 6 4 C4.02 4 2.04 4 0 4 C0 2.68 0 1.36 0 0 Z " fill="#B3B3B3" transform="translate(96,265)"/>
<path d="M0 0 C0.66 0 1.32 0 2 0 C2 0.66 2 1.32 2 2 C2.66 2 3.32 2 4 2 C4 2.66 4 3.32 4 4 C4.99 3.67 5.98 3.34 7 3 C7 3.66 7 4.32 7 5 C5.02 5 3.04 5 1 5 C0.67 3.35 0.34 1.7 0 0 Z " fill="#C7C7C7" transform="translate(148,255)"/>
<path d="M0 0 C0.33 0.66 0.66 1.32 1 2 C1.99 2.33 2.98 2.66 4 3 C3.67 4.32 3.34 5.64 3 7 C2.01 6.67 1.02 6.34 0 6 C0 4.02 0 2.04 0 0 Z " fill="#CACACA" transform="translate(172,254)"/>
<path d="M0 0 C0.99 0.33 1.98 0.66 3 1 C2.67 1.99 2.34 2.98 2 4 C0.02 4 -1.96 4 -4 4 C-4 3.01 -4 2.02 -4 1 C-3.01 1.33 -2.02 1.66 -1 2 C-0.67 1.34 -0.34 0.68 0 0 Z " fill="#BBBBBB" transform="translate(257,246)"/>
<path d="M0 0 C1.32 0 2.64 0 4 0 C4.33 1.65 4.66 3.3 5 5 C3.35 4.67 1.7 4.34 0 4 C0 2.68 0 1.36 0 0 Z " fill="#A1A1A1" transform="translate(343,227)"/>
<path d="M0 0 C0.33 1.32 0.66 2.64 1 4 C-0.32 4.33 -1.64 4.66 -3 5 C-3.66 3.68 -4.32 2.36 -5 1 C-3.35 0.67 -1.7 0.34 0 0 Z " fill="#ACACAC" transform="translate(359,226)"/>
<path d="M0 0 C2.475 0.99 2.475 0.99 5 2 C4.67 3.32 4.34 4.64 4 6 C2.68 5.34 1.36 4.68 0 4 C0 2.68 0 1.36 0 0 Z " fill="#C1C1C1" transform="translate(141,225)"/>
<path d="M0 0 C0.33 0.66 0.66 1.32 1 2 C1.99 2 2.98 2 4 2 C4 3.32 4 4.64 4 6 C2.68 6 1.36 6 0 6 C0 4.02 0 2.04 0 0 Z " fill="#ADADAD" transform="translate(88,215)"/>
<path d="M0 0 C0.66 0 1.32 0 2 0 C2 1.65 2 3.3 2 5 C0.68 5 -0.64 5 -2 5 C-1.125 1.125 -1.125 1.125 0 0 Z " fill="#8B8B8B" transform="translate(105,325)"/>
<path d="M0 0 C2.0625 0.4375 2.0625 0.4375 4 1 C3.67 1.99 3.34 2.98 3 4 C1.35 4 -0.3 4 -2 4 C-1 1 -1 1 0 0 Z " fill="#7D7D7D" transform="translate(234,326)"/>
<path d="M0 0 C2.31 0.33 4.62 0.66 7 1 C7 1.66 7 2.32 7 3 C5.68 3.33 4.36 3.66 3 4 C3 3.34 3 2.68 3 2 C2.34 2 1.68 2 1 2 C0.67 2.66 0.34 3.32 0 4 C0 2.68 0 1.36 0 0 Z " fill="#A1A1A1" transform="translate(224,275)"/>
<path d="M0 0 C1.98 0 3.96 0 6 0 C5.67 1.32 5.34 2.64 5 4 C4.34 4 3.68 4 3 4 C3 3.34 3 2.68 3 2 C2.34 2 1.68 2 1 2 C0.67 2.66 0.34 3.32 0 4 C0 2.68 0 1.36 0 0 Z " fill="#ADADAD" transform="translate(212,275)"/>
<path d="M0 0 C1.98 0 3.96 0 6 0 C6 1.32 6 2.64 6 4 C4.35 3.67 2.7 3.34 1 3 C0.67 2.01 0.34 1.02 0 0 Z " fill="#A8A8A8" transform="translate(329,256)"/>
<path d="M0 0 C-0.66 1.32 -1.32 2.64 -2 4 C-2.66 3.67 -3.32 3.34 -4 3 C-4.66 3 -5.32 3 -6 3 C-6 2.01 -6 1.02 -6 0 C-3.50907189 -1.24546405 -2.58919267 -0.7767578 0 0 Z " fill="#A2A2A2" transform="translate(245,256)"/>
<path d="M0 0 C1.98 0.495 1.98 0.495 4 1 C4 2.32 4 3.64 4 5 C2.35 4.67 0.7 4.34 -1 4 C-0.67 2.68 -0.34 1.36 0 0 Z " fill="#A5A5A5" transform="translate(104,255)"/>
<path d="M0 0 C1.65 0 3.3 0 5 0 C5 1.32 5 2.64 5 4 C3.35 4 1.7 4 0 4 C0 2.68 0 1.36 0 0 Z " fill="#B1B1B1" transform="translate(173,246)"/>
<path d="M0 0 C2.97 0.495 2.97 0.495 6 1 C5.67 1.99 5.34 2.98 5 4 C3.68 4 2.36 4 1 4 C0.67 2.68 0.34 1.36 0 0 Z " fill="#AFAFAF" transform="translate(168,236)"/>
<path d="M0 0 C0.99 0.33 1.98 0.66 3 1 C3 2.32 3 3.64 3 5 C1.35 5 -0.3 5 -2 5 C-2.33 4.34 -2.66 3.68 -3 3 C-2.34 3 -1.68 3 -1 3 C-0.67 2.01 -0.34 1.02 0 0 Z " fill="#A5A5A5" transform="translate(140,235)"/>
<path d="M0 0 C1.65 0 3.3 0 5 0 C4.67 1.32 4.34 2.64 4 4 C2.68 4 1.36 4 0 4 C0 2.68 0 1.36 0 0 Z " fill="#A5A5A5" transform="translate(119,236)"/>
<path d="M0 0 C2.5 1.375 2.5 1.375 5 3 C5 3.66 5 4.32 5 5 C3.35 5.33 1.7 5.66 0 6 C0 4.02 0 2.04 0 0 Z " fill="#A2A2A2" transform="translate(210,225)"/>
<path d="M0 0 C1.98 0.495 1.98 0.495 4 1 C4 2.32 4 3.64 4 5 C2.35 4.67 0.7 4.34 -1 4 C-0.67 2.68 -0.34 1.36 0 0 Z " fill="#A5A5A5" transform="translate(224,226)"/>
<path d="M0 0 C1.65 0 3.3 0 5 0 C4.67 1.32 4.34 2.64 4 4 C2.68 4 1.36 4 0 4 C0 2.68 0 1.36 0 0 Z " fill="#ADADAD" transform="translate(339,207)"/>
<path d="M0 0 C0.66 0 1.32 0 2 0 C2 1.98 2 3.96 2 6 C1.01 6 0.02 6 -1 6 C-1.042721 4.33388095 -1.04063832 2.66617115 -1 1 C-0.67 0.67 -0.34 0.34 0 0 Z " fill="#EFEFEF" transform="translate(286,71)"/>
</svg>
